<svg xmlns="http://www.w3.org/2000/svg" xmlns:xlink="http://www.w3.org/1999/xlink" width="1024" height="1024" viewBox="0 0 1024 1024"><defs><clipPath id="b7ff4a5c-c1a3-473e-ae1b-19ad3cbcc203"><path d="M362.09,580c-.86.14,42.49,14,81.16-7.81,24.46-14.14,32.07-25.06,38.92-36.67,6.47-11.81,12.18-24.31,23.88-46.31-29.56,6.91-66.63,30.53-85.94,40.65C403,541.22,369.22,564.44,362.09,580Z" style="fill:#1d2322"/></clipPath><clipPath id="ac288d5a-0735-48c4-97e1-5b5567cfe49c"><path d="M369,582s-9.68-40-68.35-62.83c-72.19-28-64.77,5.22-142.62-27.23,10.07,46.09,77.3,76,104.6,86S345.68,593.46,369,582Z" style="fill:#0c4968"/></clipPath><clipPath id="fa4b797e-a82d-4f6a-aacf-62ffacac5e10"><path d="M367,579.29s-34.72-9.7-56.68-45.13c-28.72-46.31-13.85-52.59-36-108.8,34.72,11.15,65.77,52.56,76.75,72.4S373.05,559.91,367,579.29Z" style="fill:#0c4968"/></clipPath><clipPath id="fbd90fe5-6536-43d8-8796-58eefde32f8f"><path d="M368.73,583.21s21.7-22.61,41.63-33.58c15.36-8.46,32.29-23.9,21.12-41.12-5.22-8-13.62-10.84-22.2-13.91,0,0,14.82-20.2,32.15-23.93C446.68,469.54,455.19,466,456,454c1.11-17.57-10.68-21.13-23.36-22.24,2-12.9,14.91-25.58,14.91-25.58s24.68-22.59,14-42.21-31.59-.49-35.59,4.85S414.81,384.37,407,405.05c-3.33,7.23-7.36,6.55-9.92,5a8.59,8.59,0,0,1-3.23-3.65c-2.56-5.26-11.77-21.4-20.65-2.49-10.46,22.24-8.16,74.73-8.16,74.73s-4.52.67-5.86-5.56-2.22-10.45-6.45-9.78S339.19,479,342.75,504,368.73,583.21,368.73,583.21Z" style="fill:#0c4968"/></clipPath><clipPath id="a8617f2f-d6cc-4a2d-a213-baf0a425ba76"><path d="M616.64,693.55s125.76-44.68,147-43.35,25.48,7.95,33.53,17.68,18.73,54.89-86.11,97.42c-79.93,13.42-211,17.26-211,17.26h0l0-.08a61.47,61.47,0,0,1-7.44-30.11l.45-34.39Z"/></clipPath><clipPath id="f83a0b39-6ae0-43f4-8b71-c40bb86ee06f"><path d="M407.1,634.33a37.14,37.14,0,0,0-25,.77c-8.15,3.25-17.26,9.14-21.06,19.71-7.6,21.12-9.69,36.65,21.46,51.92,28,13.71,232.74,78.09,261,88.28a6,6,0,0,0,7.35-3L674,727.57c1.6-3.26-4.09-13.78-7.55-14.88Z" style="fill:#5260ff"/></clipPath><clipPath id="ece21a9c-da5b-47fc-9ac1-4406da784622"><path d="M672.65,670.74c14.86-7.43,4.48-108.13,4.48-108.13-3.23-38.75,9.2-73.86-3.88-110.48h0a24.81,24.81,0,0,0-5.29-8.65c-10.19-10.85-30.39-31.47-50.46-42.69l.24-7.64-.15.57.58-11.66a8.52,8.52,0,0,0,.62-12.42l1.54-30.74-1.31,30,8.18-24a10.51,10.51,0,0,0-2.67-10.31l-4.2-4.2s12.85-25.7-8.57-30-38.55,12.85-38.55,12.85-8.57,4.28-21.42,0c0,0-21.41-8.57-25.7,17.13-2.83,17-1.91,28.41-1,34.15-.24,0-.49,0-.74,0a8.57,8.57,0,0,0-8.15,11.18,8.31,8.31,0,0,0,5.33,5.46,8.75,8.75,0,0,0,4.53.29v.35s-.55,5.5-1.05,13.33c-31.52,6.95-80.11,23.23-99.64,59.49-22.51,41.81-5.16,127.54,4.88,167.66a53.23,53.23,0,0,0,24.2,32.64l46.86,28.24a43.39,43.39,0,0,0,8.87,4.07L512.5,683l80.12,7.29Z" style="fill:#341061"/></clipPath><clipPath id="b6346cf2-a001-4ac6-b711-413d95f923c6"><path d="M553.9,390.3s-98.51,8.57-128.5,64.25c-22.51,41.81-5.16,127.54,4.88,167.66a53.23,53.23,0,0,0,24.2,32.64l46.86,28.24a43.39,43.39,0,0,0,8.87,4.07l143.11,3.12,43.7-34c14.6-7.3-.47-79.11-.47-79.11-3.23-38.75-10.22-88.43-23.3-125h0a24.77,24.77,0,0,0-5.3-8.67c-10.8-11.5-32.85-34-54.08-44.59C588.17,386,553.9,390.3,553.9,390.3Z" style="fill:#5260ff;opacity:0.51"/></clipPath><clipPath id="e7c608ab-7b59-4e7f-b63e-0dd6e867041c"><path d="M667,423.2l-.11,49.7a127.22,127.22,0,0,1-1.06,16L639.57,690.14l68.54,55.68s42.83-167.05,42.83-175.62,8.76-138.05,8.76-138.05Z" style="fill:#5260ff"/></clipPath><clipPath id="b888e180-6079-42fc-a222-489b8ecbe519"><path d="M433.59,436c.3.16,44.52-10.74,51.78,44.26,4.87,36.86,16.78,81.55,26.76,106.81,10.08,25.53,34.29,55.57,34.29,55.57a4.75,4.75,0,0,1-2.69,7.55c-10.54,2.39-31.32,9.54-36.61,30.71-.64,2.56,1.91,5,1.28,5.76-13,16.65-100.13-39.34-100.13-39.34L374,476Z" style="fill:#5260ff"/></clipPath><clipPath id="a1e484f0-e724-47ed-910a-6baee21ebd07"><path d="M647.53,701.53l-40.62,0c-3.52,0-6-2.65-5.47-5.93l13.07-85.48a7.45,7.45,0,0,1,7.29-5.94l40.61,0c3.53,0,6,2.66,5.47,5.94L654.82,695.6A7.44,7.44,0,0,1,647.53,701.53Z" style="fill:#1d2322"/></clipPath></defs><g style="isolation:isolate"><g id="b402a380-94d9-4623-956d-4ed6ff1ae80f" data-name="Layer 1"><path id="ae11c85b-a2b9-433c-ad22-5ab5887ae340" data-name="Path 1" d="M775.6,740.72c-45,23.07-92.13,40.76-138.83,59.35-21.41,8.54-43,15-60.48,30.39-16.35,14.48-26.59,35.57-43.86,49.16-13.43,10.57-29.65,16-45.91,19.63-69.78,15-142.16-2.53-199.44-48.17-51.54-41.57-87-105.46-97.45-174-6.32-41.57-.56-84.46-8.54-125.8-8.42-43.68-34.36-75.25-55.85-112.06a336.33,336.33,0,0,1-34.32-82.85c-4.45-16.8-7.63-34.54-4.8-51.77,7.76-46.75,55.29-71.81,98.19-81.95a378.84,378.84,0,0,1,162.94-2.36c42.12,8.77,86.85,27.36,130.37,21.37,49.09-6.79,74.51-53.64,111.44-83.94,83-68.13,216.82-38.83,285.72,38.55,85.07,95.55,135.08,283.2,65.06,401C901.69,661.4,841.26,706.69,777.6,739.58A21,21,0,0,1,775.6,740.72Z" style="fill:#f3fbff"/><path d="M362.09,580c-.86.14,42.49,14,81.16-7.81,24.46-14.14,32.07-25.06,38.92-36.67,6.47-11.81,12.18-24.31,23.88-46.31-29.56,6.91-66.63,30.53-85.94,40.65C403,541.22,369.22,564.44,362.09,580Z" style="fill:#1d2322"/><g style="clip-path:url(#b7ff4a5c-c1a3-473e-ae1b-19ad3cbcc203)"><path d="M362.09,580c-.31-.21,19.42-6.95,42.55-19.07,23.43-11.83,50.25-29,71.23-43.68" style="fill:none;stroke:#fff;stroke-linecap:round;stroke-miterlimit:10;stroke-width:1.1408482201049166px"/><path d="M397.05,564.78s5.69-8.76,6.29-14.48" style="fill:none;stroke:#fff;stroke-linecap:round;stroke-miterlimit:10;stroke-width:1.1408482201049166px"/><path d="M420.69,552.38c.05,0,4.28-8.79,1.17-14.27" style="fill:none;stroke:#fff;stroke-linecap:round;stroke-miterlimit:10;stroke-width:1.1408482201049166px"/><path d="M461.36,537.28s-10.36-.77-17,1.46a20.56,20.56,0,0,0,2.51-12.36" style="fill:none;stroke:#fff;stroke-linecap:round;stroke-linejoin:round;stroke-width:1.1408482201049166px"/><path d="M439.72,550.07c-.05,0-11-2.24-17.62,1.52" style="fill:none;stroke:#fff;stroke-linecap:round;stroke-miterlimit:10;stroke-width:1.1408482201049166px"/><path d="M416.37,566c-.05.07-12.43-4.62-15.84-3" style="fill:none;stroke:#fff;stroke-linecap:round;stroke-miterlimit:10;stroke-width:1.1408482201049166px"/><path d="M349.23,538.66c10.17,16.33,10,46.38,10,46.44,1,1.45,59.48-20,73.81-38.48,15.78-16.91,13.54-32.13,10.71-34.2-3.07-2.18-5.53.6-9.46,4.6s-7.29,1.48-7.27,1.48A255.64,255.64,0,0,1,349.23,538.66Z" style="fill:#184968"/></g><path d="M369,582s-9.68-40-68.35-62.83c-72.19-28-64.77,5.22-142.62-27.23,10.07,46.09,77.3,76,104.6,86S345.68,593.46,369,582Z" style="fill:#0c4968"/><g style="clip-path:url(#ac288d5a-0735-48c4-97e1-5b5567cfe49c)"><path d="M369.23,581.33S271.68,555.88,209.7,518" style="fill:none;stroke:#fff;stroke-linecap:round;stroke-miterlimit:10;stroke-width:1.73464834918745px"/><path d="M323.09,567.38s-15,2.79-22.46,7.3" style="fill:none;stroke:#fff;stroke-linecap:round;stroke-miterlimit:10;stroke-width:1.73464834918745px"/><path d="M290.32,555.78s-14.19,3-18.87,10.83" style="fill:none;stroke:#fff;stroke-linecap:round;stroke-miterlimit:10;stroke-width:1.73464834918745px"/><path d="M244.85,522.89s4.93,13.58,12.15,19.32a31,31,0,0,0-18.12,5.53" style="fill:none;stroke:#fff;stroke-linecap:round;stroke-miterlimit:10;stroke-width:1.73464834918745px"/><path d="M274.65,537.82s4.16,13.65,13.68,17.2" style="fill:none;stroke:#fff;stroke-linecap:round;stroke-miterlimit:10;stroke-width:1.73464834918745px"/><path d="M310.56,548.42s3.06,15.79,7.8,17.37" style="fill:none;stroke:#fff;stroke-linecap:round;stroke-miterlimit:10;stroke-width:1.73464834918745px"/><path d="M362.38,500.4c8.72,20.94,15,64.21,6.82,82.8,0,0-33.43-13.5-51.32-51.15-23.4-49.21-7.92-53.8-23.73-112.13Z" style="fill:#1d2322;mix-blend-mode:multiply"/><path d="M281,505.89s12.19,56,84.73,77.51-5.3-72.32-5.3-72.32L281,505.89" style="fill:#0c4968"/></g><path d="M258.87,489.17s-1.22,1-3.05,2.28a72.84,72.84,0,0,1-7,4.46c-5.28,2.88-11.24,4.79-13.87-.27-1.2-2.39-1.23-4.32-.5-5.83a7.48,7.48,0,0,1,4-3.4,25.32,25.32,0,0,1,10.66-1.54,25.83,25.83,0,0,1,5.15,1C254.58,486,259.78,488.47,258.87,489.17Z" style="fill:#5260ff"/><path d="M258.87,489.17s1.18-.93,2.85-2.5a54.8,54.8,0,0,0,5.61-6.09c3.72-4.75,6.36-10.29,3.22-13.25a4,4,0,0,0-4.19-1.27,8.72,8.72,0,0,0-3.75,3,31.37,31.37,0,0,0-4.86,9.38,18.42,18.42,0,0,0-.78,4,12.38,12.38,0,0,0,.23,4C257.25,486.7,258.4,489.53,258.87,489.17Z" style="fill:#5260ff"/><path d="M249.94,475.88a107.31,107.31,0,0,0,7.37,11.18l2,2.69,2.08,2.62c1.39,1.75,2.77,3.51,4.26,5.18" style="fill:#5260ff"/><path d="M276.41,509.4a74.44,74.44,0,0,1-9,8c-4.86,3.56-10.48,6.17-13.75,1.77-5.88-8.5,7.7-12.16,12.52-12.56a23,23,0,0,1,5.24.2C271.76,506.9,277.17,508.59,276.41,509.4Z" style="fill:#5260ff"/><path d="M276.91,508.28A61,61,0,0,0,283.33,498c2.6-5.42,4.07-11.44.12-13.64-7.23-4.4-9.91,8.84-10.14,13.64a18.12,18.12,0,0,0,.22,4.09,12.86,12.86,0,0,0,1.15,3.9C274.78,506.24,276.53,508.77,276.91,508.28Z" style="fill:#5260ff"/><path d="M265.64,497.55A256.17,256.17,0,0,0,284.09,517" style="fill:#5260ff"/><path d="M295.45,528.14a73.21,73.21,0,0,1-10.33,6.29c-5.43,2.63-11.43,4.18-13.79-.68-1.1-2.26-1.08-4.07-.29-5.49a7.91,7.91,0,0,1,4.11-3.15,26.05,26.05,0,0,1,10.65-1.43,23.42,23.42,0,0,1,5.11,1.09C291.22,524.89,296.38,527.47,295.45,528.14Z" style="fill:#5260ff"/><path d="M296.05,527.62a61.34,61.34,0,0,0,10.08-6.6c4.63-3.82,8.49-8.67,5.8-12.4a4.63,4.63,0,0,0-4.17-2.27,7.93,7.93,0,0,0-4.36,2.12,30,30,0,0,0-6.46,8.36,19.31,19.31,0,0,0-1.49,3.85,12.83,12.83,0,0,0-.53,4C294.93,524.91,295.52,527.88,296.05,527.62Z" style="fill:#5260ff"/><path d="M284.09,517l4.94,4.52c1.65,1.5,3.27,3,5,4.45l5.12,4.31c1.71,1.45,3.41,2.89,5.2,4.23" style="fill:#5260ff"/><path d="M317.15,544.11a72.51,72.51,0,0,1-8.09,9c-4.45,4.06-9.77,7.24-13.41,3.33-3.45-3.64-1.81-6.95,1.2-9.33a26.54,26.54,0,0,1,9.79-4.46,22.43,22.43,0,0,1,5.19-.42C312.15,542.22,317.85,543.2,317.15,544.11Z" style="fill:#5260ff"/><path d="M317.15,544.11a62.27,62.27,0,0,0,9.55-7.38c4.33-4.18,7.8-9.3,4.76-12.83-2.9-3.28-5.91-2.11-8.56.5a30.1,30.1,0,0,0-5.74,8.88,19.84,19.84,0,0,0-1.17,4,12.48,12.48,0,0,0-.2,4C315.81,541.51,316.65,544.42,317.15,544.11Z" style="fill:#5260ff"/><path d="M304.36,534.47l5.3,4.1c1.78,1.34,3.5,2.77,5.35,4L326,550.34" style="fill:#5260ff"/><path d="M339.4,559s-.82,1.32-2.1,3.16a66.2,66.2,0,0,1-5.13,6.48c-4.05,4.42-9.1,8.1-13.06,4.55-7.24-6.83,5.16-13.34,9.78-14.76a21.75,21.75,0,0,1,5.14-.92C334.35,557.53,340,558.05,339.4,559Z" style="fill:#5260ff"/><path d="M339.4,559s1.24-.86,3-2.33a58.23,58.23,0,0,0,6-5.72c4.05-4.49,7.13-9.8,3.82-13.13-6.05-6.43-12.07,5.71-13.56,10.28a19.55,19.55,0,0,0-.87,4,13.56,13.56,0,0,0,.06,4.07C337.93,556.46,338.92,559.37,339.4,559Z" style="fill:#5260ff"/><polyline points="325.95 550.34 337.2 557.61 340.01 559.42 342.9 561.12 348.68 564.51" style="fill:#5260ff"/><path d="M362.67,572.32a63.29,63.29,0,0,0,8.49-8.56c3.75-4.7,6.53-10.23,3-13.38-6.62-5.91-11.79,6.58-13,11.22a18.94,18.94,0,0,0-.59,4,13.33,13.33,0,0,0,.34,4C361,569.89,362.21,572.68,362.67,572.32Z" style="fill:#5260ff"/><path d="M348.68,564.51l5.78,3.39c1.93,1.13,3.93,2.12,5.89,3.18l11.83,6.29" style="fill:#5260ff"/><path d="M249.9,468.23A34.69,34.69,0,0,1,252,479.47a.86.86,0,0,1,0,.17l-.19-.08a52.56,52.56,0,0,1-10.91-7.29c-5.1-4.58-9.06-11.92-4-14.17S247.69,462.35,249.9,468.23Z" style="fill:#5260ff"/><polyline points="397.53 418.63 397.97 425.91 398.19 429.55 398.26 433.19 398.5 447.78" style="fill:#5260ff"/><path d="M416.08,430.48c-6.36,6.38-13.1,10.48-17.68,11.39,1-4.43,5.32-10.95,11.67-17.34,6.12-6.31,17.69-16.5,22.22-17.78-.4,2.39-2.85,6.79-6,11.33-1.58,2.27-3.24,4.58-5.05,6.72S417.66,428.89,416.08,430.48Z" style="fill:#5260ff"/><path d="M380.45,437.12c6.56,5.75,13.44,9.77,18.05,10.66-1.17-4.43-5.69-10.87-12.25-16.61A97.74,97.74,0,0,0,373.73,422c-4.61-2.8-9-4.9-11.26-5.18a15.53,15.53,0,0,0,2.51,4.05c.64.81,1.38,1.68,2.17,2.59s1.57,1.86,2.44,2.83A138.44,138.44,0,0,0,380.45,437.12Z" style="fill:#5260ff"/><path d="M394.37,389.65l1.09,7.2c.32,2.41.53,4.84.8,7.25l.77,7.26c.28,2.41.33,4.85.5,7.27" style="fill:#5260ff"/><path d="M413.77,400c-5.76,6.88-12.11,11.47-16.6,12.7.62-4.48,4.32-11.3,10.08-18.19,1.44-1.72,3.22-3.69,5.12-5.72s3.81-4.1,5.76-6c3.88-3.86,7.63-7.13,9.82-7.94-.17,2.45-2.21,7.09-4.9,11.91A103.53,103.53,0,0,1,413.77,400Z" style="fill:#5260ff"/><path d="M379,409.32a74,74,0,0,0,10.16,6.4,27.07,27.07,0,0,0,8.42,2.91,24.32,24.32,0,0,0-4.43-7.51,54.42,54.42,0,0,0-8.9-8.13c-7.07-5.26-20-12.23-24.81-12.32.92,1.92,4,5.25,7.75,8.78A146.33,146.33,0,0,0,379,409.32Z" style="fill:#5260ff"/><path d="M388.47,361.09c1.14,4.73,2.47,9.41,3.32,14.2l1.43,7.15c.46,2.39.76,4.81,1.15,7.21" style="fill:#5260ff"/><path d="M408.84,369.59c-5.09,7.45-11,12.58-15.36,14.21.23-4.52,3.26-11.64,8.34-19.1,2.57-3.72,6-8.56,9.54-12.86s6.87-8,9-9c.08,2.5-1.48,7.41-3.68,12.54A86,86,0,0,1,408.84,369.59Z" style="fill:#5260ff"/><path d="M375,382c7.42,4.52,14.62,7.46,19.34,7.61a24.22,24.22,0,0,0-5.11-7.09,51.49,51.49,0,0,0-9.58-7.26,98.89,98.89,0,0,0-13.93-6.74c-5-1.87-9.67-3.07-12-2.91C356,369.11,367.47,377.48,375,382Z" style="fill:#5260ff"/><path d="M379.08,333.5a207,207,0,0,1,9.39,27.59" style="fill:#5260ff"/><path d="M400.55,339.42c-4.1,8.08-9.57,13.89-13.69,16a26,26,0,0,1,1.49-8.71,74.81,74.81,0,0,1,4.49-11.32c1-2,2.25-4.36,3.62-6.8s2.72-5,4.15-7.37c2.81-4.78,5.59-9,7.51-10.34.47,2.54-.3,7.76-1.73,13.25A99.88,99.88,0,0,1,400.55,339.42Z" style="fill:#5260ff"/><path d="M368.31,355.74a71.77,71.77,0,0,0,11.32,4.12,28.09,28.09,0,0,0,8.84,1.22,21.61,21.61,0,0,0-6-6.44,51.75,51.75,0,0,0-10.21-6.12,91.25,91.25,0,0,0-14.75-4.79,61.72,61.72,0,0,0-7.09-1.27,18.61,18.61,0,0,0-5,0c1.3,1.53,4.91,3.95,9.42,6.37S364.41,353.93,368.31,355.74Z" style="fill:#5260ff"/><path d="M364.79,308.18c6,7.65,10.44,16.42,14.29,25.32" style="fill:#5260ff"/><path d="M387.5,310a47.62,47.62,0,0,1-4.87,11.35,24.27,24.27,0,0,1-5.89,6.78,18.14,18.14,0,0,1-.29-3.94,38,38,0,0,1,.29-4.9c.21-1.79.53-3.72,1-5.76s.84-4.14,1.41-6.34l2-7.56c.71-2.76,1.6-5.64,2.22-8.51s1.4-5.54,1.82-8c.13-.6.26-1.17.38-1.71a5.9,5.9,0,0,0,.29-1.61,8.33,8.33,0,0,1,.38-2.69,22.26,22.26,0,0,1,1.31,2c.22.49.44,1,.65,1.62s.42,1.2.62,1.86a18.23,18.23,0,0,1,.41,1.92c.23,1.32.43,2.75.58,4.24s.09,2.95.08,4.47-.05,3.07-.18,4.58-.35,3-.57,4.45A54.48,54.48,0,0,1,387.5,310Z" style="fill:#5260ff"/><path d="M358.45,331.19c8.15,2.23,16.14,3.15,20.63,2.21-1.3-1.86-3.82-3.74-6.86-5.49a40,40,0,0,0-5.08-2.44,51.63,51.63,0,0,0-6-1.84,65.42,65.42,0,0,0-15.09-1.77c-5.17,0-9.69.83-11.76,1.79a12,12,0,0,0,3.7,1.55c1.72.58,3.86,1.27,6.22,1.92s4.83,1.46,7.3,2.15Z" style="fill:#5260ff"/><path d="M350.42,299.75c5.73,5.66,11.8,9.48,15.93,10.35-.92-4.11-4.79-10.15-10.52-15.82s-16.58-14.2-20.7-15.07C336,283.33,344.7,294.08,350.42,299.75Z" style="fill:#5260ff"/><path d="M367,579.29s-34.72-9.7-56.68-45.13c-28.72-46.31-13.85-52.59-36-108.8,34.72,11.15,65.77,52.56,76.75,72.4S373.05,559.91,367,579.29Z" style="fill:#0c4968"/><g style="clip-path:url(#fa4b797e-a82d-4f6a-aacf-62ffacac5e10)"><path d="M367,579.29S337,507,301.15,463.42" style="fill:none;stroke:#fff;stroke-linecap:round;stroke-miterlimit:10;stroke-width:1.3468841445533468px"/><path d="M351.33,545.32s.53-11.84,3.2-18.06" style="fill:none;stroke:#fff;stroke-linecap:round;stroke-miterlimit:10;stroke-width:1.3468841445533468px"/><path d="M338.89,521.36s.74-11.23,6.3-15.68" style="fill:none;stroke:#fff;stroke-linecap:round;stroke-miterlimit:10;stroke-width:1.3468841445533468px"/><path d="M308.71,489.93s11,2.33,16.17,7.26a24,24,0,0,1,2.3-14.52" style="fill:none;stroke:#fff;stroke-linecap:round;stroke-miterlimit:10;stroke-width:1.3468841445533468px"/><path d="M323.39,511.24s10.95,1.73,14.7,8.67" style="fill:none;stroke:#fff;stroke-linecap:round;stroke-miterlimit:10;stroke-width:1.3468841445533468px"/><path d="M335.41,537.71s12.46.66,14.19,4.13" style="fill:none;stroke:#fff;stroke-linecap:round;stroke-miterlimit:10;stroke-width:1.3468841445533468px"/><path d="M406.33,543.71c-18.77,8.16-37.6,38-37.6,38s-28.37-51.42-34.7-75.83,1.26-40.37,5.39-41.51,5.48,3,7.5,9,6.45,4.87,6.45,4.87Z" style="fill:#1d2322;mix-blend-mode:multiply"/></g><path d="M368.73,583.21s21.7-22.61,41.63-33.58c15.36-8.46,32.29-23.9,21.12-41.12-5.22-8-13.62-10.84-22.2-13.91,0,0,14.82-20.2,32.15-23.93C446.68,469.54,455.19,466,456,454c1.11-17.57-10.68-21.13-23.36-22.24,2-12.9,14.91-25.58,14.91-25.58s24.68-22.59,14-42.21-31.59-.49-35.59,4.85S414.81,384.37,407,405.05c-3.33,7.23-7.36,6.55-9.92,5a8.59,8.59,0,0,1-3.23-3.65c-2.56-5.26-11.77-21.4-20.65-2.49-10.46,22.24-8.16,74.73-8.16,74.73s-4.52.67-5.86-5.56-2.22-10.45-6.45-9.78S339.19,479,342.75,504,368.73,583.21,368.73,583.21Z" style="fill:#0c4968"/><g style="clip-path:url(#fbd90fe5-6536-43d8-8796-58eefde32f8f)"><path d="M436.16,395.27s-46.79,64.5-67.43,187.94" style="fill:none;stroke:#fff;stroke-miterlimit:10;stroke-width:1.3468841445533468px"/><path d="M393.79,484.13c2.95-3.19,21.18-29.55,40.41-30.61" style="fill:none;stroke:#fff;stroke-linecap:round;stroke-linejoin:round;stroke-width:1.3468841445533468px"/><path d="M400.05,467.11s-1-16-6.26-28.47" style="fill:none;stroke:#fff;stroke-linecap:round;stroke-linejoin:round;stroke-width:1.3468841445533468px"/><path d="M378.38,536.29s14.41-10.24,37.54-11.35" style="fill:none;stroke:#fff;stroke-linecap:round;stroke-linejoin:round;stroke-width:1.3468841445533468px"/><path d="M367,496.47s10.57,14.75,14,29.73" style="fill:none;stroke:#fff;stroke-linecap:round;stroke-linejoin:round;stroke-width:1.3468841445533468px"/></g><path d="M358.6,670.34s-19.65,29.73,75,81.45c81.26,44.4,143.1,9.53,143.1,9.53l37.06-43.5Z" style="fill:#213b80"/><path d="M520.47,740.24a10.44,10.44,0,0,0-9.4-9.23c-12.31-1.16-35.13,0-54.63,3.5-21.21,3.74-57.6,8.44-68.13,15.91-2.69,1.91-.49,17.84,2.52,19.18,5.41,2.41,90.49,14.11,90.49,14.11l42.06-26.77Z"/><path d="M474.71,760l1.45-3.56a17.2,17.2,0,0,1,10.95-10l30.07-9.15a17.24,17.24,0,0,1,22.25,16.52v9.31A17.23,17.23,0,0,1,524,780.24l-31.52,3.39A17.24,17.24,0,0,1,474.71,760Z" style="fill:#fff"/><path d="M616.64,693.55s125.76-44.68,147-43.35,25.48,7.95,33.53,17.68,18.73,54.89-86.11,97.42c-79.93,13.42-211,17.26-211,17.26h0l0-.08a61.47,61.47,0,0,1-7.44-30.11l.45-34.39Z"/><g style="clip-path:url(#a8617f2f-d6cc-4a2d-a213-baf0a425ba76)"><path d="M755.86,642.59s-45-3.31-95.26,18.55-170.92,88.54-170.92,88.54L491.77,796l233.58-32,72.71-42.22c14.47-13,21.18-77.11,2.27-81.63Z" style="fill:#213b80"/></g><polygon points="726.86 750.76 690.82 774.17 620.32 760.11 646.31 718.13 726.86 750.76" style="fill:#fff"/><path d="M795.5,764.34c-4.89-2.74-80.16-24.12-88.12-26l0,0c-9.16-2.56-17-4.92-21.84-6.75a24.92,24.92,0,0,1-29.33,33.59c.75.71,15,18.94,17.31,20.91a.5.5,0,0,1,0,.13l.53.1.37.07c12.53,2.21,110.74,3.69,121.9-2.78C799.12,782,798.38,766,795.5,764.34Z"/><path d="M407.1,634.33a37.14,37.14,0,0,0-25,.77c-8.15,3.25-17.26,9.14-21.06,19.71-7.6,21.12-9.69,36.65,21.46,51.92,28,13.71,232.74,78.09,261,88.28a6,6,0,0,0,7.35-3L674,727.57c1.6-3.26-4.09-13.78-7.55-14.88Z" style="fill:#5260ff"/><g style="clip-path:url(#f83a0b39-6ae0-43f4-8b71-c40bb86ee06f)"><path d="M425.4,471.82c-22.5,41.79-5.17,127.47,4.87,167.61,2.46,9.81,7.29,18.86,14.84,25.52,38.35,33.84,112.33,60.23,159.95,64.17q9.5.78,19,.87c4.18,0,8.47,0,12.35-1.59,8.3-3.31,10-14.46,13.36-21.79l5.69-12.29Z" style="fill:#5260ff;opacity:0.51;mix-blend-mode:multiply"/></g><path d="M672.65,670.74c14.86-7.43,4.48-108.13,4.48-108.13-3.23-38.75,9.2-73.86-3.88-110.48h0a24.81,24.81,0,0,0-5.29-8.65c-10.19-10.85-30.39-31.47-50.46-42.69l.24-7.64-.15.57.58-11.66a8.52,8.52,0,0,0,.62-12.42l1.54-30.74-1.31,30,8.18-24a10.51,10.51,0,0,0-2.67-10.31l-4.2-4.2s12.85-25.7-8.57-30-38.55,12.85-38.55,12.85-8.57,4.28-21.42,0c0,0-21.41-8.57-25.7,17.13-2.83,17-1.91,28.41-1,34.15-.24,0-.49,0-.74,0a8.57,8.57,0,0,0-8.15,11.18,8.31,8.31,0,0,0,5.33,5.46,8.75,8.75,0,0,0,4.53.29v.35s-.55,5.5-1.05,13.33c-31.52,6.95-80.11,23.23-99.64,59.49-22.51,41.81-5.16,127.54,4.88,167.66a53.23,53.23,0,0,0,24.2,32.64l46.86,28.24a43.39,43.39,0,0,0,8.87,4.07L512.5,683l80.12,7.29Z" style="fill:#341061"/><g style="clip-path:url(#ece21a9c-da5b-47fc-9ac1-4406da784622)"><path d="M368.64,625.39c-19.36,82.27,10.9,153.55,71.34,188.43,25.26,14.59,55.8,22.79,90.18,22.79,31.29,0,62.59-6.8,92.15-19C703.05,784.3,771,710.76,791.09,625.39c27.45-116.67-44.86-211.23-161.53-211.23S396.09,508.72,368.64,625.39Z" style="fill:#341061;opacity:0.43;mix-blend-mode:multiply"/></g><path d="M553.9,390.3s-98.51,8.57-128.5,64.25c-22.51,41.81-5.16,127.54,4.88,167.66a53.23,53.23,0,0,0,24.2,32.64l46.86,28.24a43.39,43.39,0,0,0,8.87,4.07l143.11,3.12,43.7-34c14.6-7.3-.47-79.11-.47-79.11-3.23-38.75-10.22-88.43-23.3-125h0a24.77,24.77,0,0,0-5.3-8.67c-10.8-11.5-32.85-34-54.08-44.59C588.17,386,553.9,390.3,553.9,390.3Z" style="fill:#5260ff;opacity:0.51"/><g style="clip-path:url(#b6346cf2-a001-4ac6-b711-413d95f923c6)"><path d="M590.93,686.4a22,22,0,0,1,20.48-12.8c15.36,0,7.68,15.36,7.68,15.36Z" style="fill:#fdcbaa"/><path d="M667,423.2l-.11,49.7a127.22,127.22,0,0,1-1.06,16L639.57,690.14l68.54,55.68s42.83-167.05,42.83-175.62,8.76-138.05,8.76-138.05Z" style="fill:#5260ff"/><g style="clip-path:url(#e7c608ab-7b59-4e7f-b63e-0dd6e867041c)"><path d="M624.74,623.71s20.37-24,52.16-14.64,30.69,25,30.69,25" style="fill:none;stroke:#5260ff;stroke-miterlimit:10;stroke-width:9.06280966566033px;opacity:0.2;mix-blend-mode:multiply"/></g><path d="M672.21,669a22,22,0,0,0-20.48-12.8c-15.36,0-7.68,15.36-7.68,15.36Z" style="fill:#fdcbaa"/><path d="M621.23,671.44a22,22,0,0,0-20.48-12.8c-15.36,0-7.68,15.36-7.68,15.36Z" style="fill:#fdcbaa"/><path d="M1007.91,663.24l-2.71.39c-1.63,2.51-2.45,13.73-5.4,14.17l-16.1,1.7a10.43,10.43,0,0,0-7.47,5.06l-4.46,7.65a10.42,10.42,0,0,0,9.63,15.64l32.19-2a10.39,10.39,0,0,0,5.27-1.81l18.46-12.68C1029,682.81,1025.68,666.19,1007.91,663.24Z" style="fill:#fdcbaa"/><path d="M433.59,436c.3.16,44.52-10.74,51.78,44.26,4.87,36.86,16.78,81.55,26.76,106.81,10.08,25.53,34.29,55.57,34.29,55.57a4.75,4.75,0,0,1-2.69,7.55c-10.54,2.39-31.32,9.54-36.61,30.71-.64,2.56,1.91,5,1.28,5.76-13,16.65-100.13-39.34-100.13-39.34L374,476Z" style="fill:#5260ff"/><g style="clip-path:url(#b888e180-6079-42fc-a222-489b8ecbe519)"><path d="M464,664.44s-4.66-31.12,23.29-48.91,44.66-5.37,44.66-5.37" style="fill:none;stroke:#5260ff;stroke-miterlimit:10;stroke-width:9.06280966566033px;opacity:0.2;mix-blend-mode:multiply"/></g></g><polygon points="526.09 424.57 616.04 424.57 620.33 338.9 547.51 326.05 526.09 338.9 526.09 424.57" style="fill:#fdcbaa"/><path d="M551.79,313.2s-21.41-8.57-25.7,17.13,0,38.55,0,38.55h4.29s0-42.83,17.13-38.55,25.7,17.13,42.83,17.13a59.3,59.3,0,0,0,30-8.56l-1.31,30,8.18-24a10.51,10.51,0,0,0-2.67-10.31l-4.2-4.2s12.85-25.7-8.57-30-38.55,12.85-38.55,12.85S564.64,317.48,551.79,313.2Z" style="fill:#232323"/><path d="M526.09,381.73s4.29,25.7,17.14,34.27,12.85-12.85,34.26-12.85a34,34,0,0,1,30,17.13l.06,0a17.37,17.37,0,0,0,5.14-8.37l5.06-18.71L616.05,446s0,21.42-30,21.42-55.68-8.57-60-25.7S526.09,381.73,526.09,381.73Z" style="fill:#232323"/><path d="M568.7,419.46c1.17,0,2.32.08,3.48.14,4.83.28,9.66.31,14.49.41,1.88,0,3.76.11,5.64.18-1.62-3-6-9.37-14.18-9.37-7,0-9.42,5.9-12.06,8.37A8.66,8.66,0,0,0,568.7,419.46Z" style="fill:#fdcbaa"/><circle cx="524.38" cy="373" r="8.55" style="fill:#fdcbaa"/><circle cx="612.63" cy="375.56" r="8.55" style="fill:#fdcbaa"/><path d="M578.1,343.91s28.77-7.67,24.93-28.13" style="fill:#3f3f3f"/><path d="M591.53,343.91s28.77-7.67,24.93-28.13" style="fill:#3f3f3f"/><polyline points="700.08 739.91 694.59 763.11 718.87 746.12 716.44 765.54 740.72 750.97 735.86 770.39" style="fill:none;stroke:#5260ff;stroke-linecap:round;stroke-linejoin:round;stroke-width:2.427803971120234px"/><polyline points="465.65 774.81 467.12 755.14 446.08 772.39 445.17 756.23 423.72 771.51 425.2 755.01" style="fill:none;stroke:#5260ff;stroke-linecap:round;stroke-linejoin:round;stroke-width:2.207109872088538px"/><path d="M647.53,701.53l-40.62,0c-3.52,0-6-2.65-5.47-5.93l13.07-85.48a7.45,7.45,0,0,1,7.29-5.94l40.61,0c3.53,0,6,2.66,5.47,5.94L654.82,695.6A7.44,7.44,0,0,1,647.53,701.53Z" style="fill:#1d2322"/><g style="clip-path:url(#a1e484f0-e724-47ed-910a-6baee21ebd07)"><circle cx="622.93" cy="611.54" r="2.85" style="fill:#5260ff"/></g><path d="M539.29,646.6a8.17,8.17,0,0,1,6.48.38l38.49,19.4a10.42,10.42,0,0,0,8.57.37l33.88-.44h2.53c4.46.17,4.8,4.12,4.06,8.62l-1.7,10.3a12.91,12.91,0,0,1-11.2,9l-17.95,1.87c-1.89.11-3.56-1-5.45-1.18l-89.35-9.46c-2.52-.18-2.53-13.28,7.28-24.28C521.54,653.74,533.45,648.73,539.29,646.6Z" style="fill:#fdcbaa"/><path d="M692.61,641.36c-2.78-2-6.64-4-10.16-4.5-5.93-.75-17-2.42-19.42,7.29-.75,3-1.57,13.11-2.43,17s-10,3.29-16.05,4.07l-2.07.26c-4.57,1.65-5.73,4.79-6.55,9.34-.46,2.61-1.88,7.29-1.83,10,.09,5.22,1.73,8,7.66,7.82,5-.11,10.07-.41,15.89-.77s11.46-1,14.36-3.12c7.12-5.08,11.69-16.11,15.58-23.59a152.53,152.53,0,0,0,7.19-15.25C696.37,645.77,695.1,643.11,692.61,641.36Z" style="fill:#fdcbaa"/><path id="a2fc0aca-b811-4bcb-8ad0-1ce621f22e2b" data-name="Path 3" d="M310.77,64.71c-4.51-1.61-9-3.6-13.74-3.22-5.06.27-10.34-.81-15.24,1.23a34.75,34.75,0,0,0-10.65,6.19c-2.4,1.94-4.55,4.46-7.3,5.59-5.23-.26-10.47,0-15.71.17a36,36,0,0,0-12.88,5.91c-3.73,2.38-5.75,7.16-7.94,11.35a35.23,35.23,0,0,0-3.22,13c-7.81,0-16.11.11-23,5.33-2.92,2.47-6.48,4.14-8.54,7.91-3.05,5.22-5.71,11.35-5.11,18.07,1.9.11,3.82.27,5.71.27,63.8-.16,127.59.16,191.35-.16-.3-5-.77-10.27-3-14.58-1.85-3.49-3.44-7.47-6.44-9.57a32.63,32.63,0,0,0-17.21-8c-6.79-1.51-13.66-.38-20.53-1.08,0-6-2.05-11.4-4-16.72a23.11,23.11,0,0,0-3.86-6.3,40.47,40.47,0,0,0-8-8.5C318,69.18,314.68,66.11,310.77,64.71Z" style="fill:#c7ecff;opacity:0.300000011920929;isolation:isolate"/></g></g></svg>