<svg id="fa50287b-66b0-401f-bcf5-7d11bf1c9c4c" data-name="Layer 1" xmlns="http://www.w3.org/2000/svg" xmlns:xlink="http://www.w3.org/1999/xlink" width="1024" height="1024" viewBox="0 0 1024 1024"><defs><clipPath id="b9057cb7-b038-49e8-851c-ca08d074ea81"><polyline points="193.4 838.21 154.26 836.77 148.46 616.43 196.3 616.43 196.3 677.31 193.4 838.21" style="fill:none"/></clipPath><clipPath id="ba8c33f4-2374-428e-a337-584ba7ec7cdb"><path d="M112,390.13c-3.36,12.82-3.33,41.69,0,52.18,3,9.3,5.12,8.58,9.67,12.35,11.26,9.34,18.54,2.09,28.51-5.18,2.73-2,6.84-4.16,8.77-7.38.68-1.93,1.3-3.59,1.89-5.59-.45-9.66-1.83-22.72-1.85-31.59s1.19-13.57,1.3-21.65c-16,2-32.19,3.78-48.27,5.67l0,1.19" style="fill:none"/></clipPath><clipPath id="bae6d5ec-d40a-424b-ac81-9e3f4b37aee8"><path d="M113.45,423.68h0c-3.87.05-6.08-2.86-6.51-6.43V417c.3-1.75,1.11-3,3.13-3.1s4.75-.11,6.77-.06,2.84,1.3,3.14,3.05v.26c-.45,3.57-2.65,6.49-6.51,6.54" style="fill:none"/></clipPath><clipPath id="a7569da8-768b-4223-b4da-528c03de5c4d"><path d="M136.17,423.39h0c-3.84.05-6.06-2.8-6.46-6.36v-.26c.31-1.75,1.15-3,3.16-3.08s4.76-.11,6.77-.06,2.82,1.26,3.1,3v.26c-.48,3.56-2.71,6.46-6.56,6.5" style="fill:none"/></clipPath><clipPath id="e4372554-9a9d-46e4-b796-730eab6e7418"><path d="M226.19,509c-1.65-9.24-4.13-13.78-9.6-21.53a46.79,46.79,0,0,0-20.29-15.94c-5.35-2.22-26.09-8.7-26.09-8.7s-3.35-27.89-4.71-42.2c-5.72,4.54-11.91,6.74-17.55,12s-15.53,17-19.7,22-2.14,5.71-4.89,9.58c-8.75,4.06-12.23,3.77-22.73,8.78s-16.44,11.12-19.29,28.65S76,554.43,73.07,575.43c-3.75,1.55-30,3.44-30.07,3.43-7.88-.74-9.76-2.27-14.5-3.15a12.75,12.75,0,0,0-5.38-.24c-2.9.38-6,.93-8.82,1.42a3.06,3.06,0,0,0-2.18,1.22c-4,4.46-8,9.21-12.06,13.76l16.16,0c2.21-2.31,4.56-4.9,6.73-7.14a3.93,3.93,0,0,1,2.89-1.25,8.26,8.26,0,0,1,1.22,0,4.11,4.11,0,0,1,3.29,1.8c.33.44.76,1.2,1.08,1.63a9.52,9.52,0,0,0,3.44,3,4.85,4.85,0,0,0,.51.27c3.76,1.46,5.28,2.33,9.85,2.79l14.56,1.41c6.88.66,18.88,2.92,26.29,3.12S98,594.3,99.62,587.22c2.65-11.22,3.93-23.8,6-35.33,3.8,30.44,0,62.18-3.19,92.62,4.12.78,9.93,2.25,13.71,2.92,17.91,3.17,32.24,3.81,50.67,1.24,8.78-1.22,21.79-3.58,31.28-5-1.13-32-2.32-63.87-3.92-95.8l1.7-.87q1.44,12.33,3,24.63c9.19,5.47,18.38,11.22,27.61,16.43,5-24.74,3.78-55.95-.34-79.11" style="fill:none"/></clipPath><clipPath id="a2bc2758-8750-4a09-8905-d4e18324b79a"><path d="M681,392.87" style="fill:none"/></clipPath><clipPath id="bf09a72d-8ce8-4133-ad39-345f8d7f71ff"><path d="M680.46,323.86c-.76-15-14.26-65.48-27.33-82-2.93-3.7-7-10.94-11.76-14.33-8.08-5.77-18.36-6.81-29.28-7.77L592.39,257c3.15,3.49,31.86,9.9,34.44,13.44,11.87,16.3,18.84,33.39,28.14,52.74-13.53,22.74-67.77,54.11-67.79,54.23-1,3.8.69,9.68,5.23,10.82,4.83-2.59,36.49-19.14,55.43-28.76C674,346.17,681.3,340.82,680.46,323.86Z" style="fill:#0c4968"/></clipPath><clipPath id="aab0049d-ab9e-4437-98d5-ac4e57356fb7"><path d="M627.07,421.92c1.33-.54,2.67-1,4-1.41-1.38-4.38-2.83-9.25-3.61-12.37.52.35-15.51-32.86-5-72.85,11.87-42.55,7.22-71.91,7.1-71.39l-16.09-51.35c-17.13,2.61-32.88,23.08-32.4,34.46,1.29,24.73,24.66,61,16.51,94.31-7.08,32.44,20.35,74.1,19.91,73.5,2.63,2.76,5.31,5.34,8.07,7.72Z" style="fill:#0c4968"/></clipPath><clipPath id="e064a189-3c9d-4635-9626-d62ce6c94fa9"><path d="M548.37,209.49c-12.08-10.1-33.52-35.07-1.56-48.61,22-9.39,28-15.95,39.68-31.54s14.9-32.86,35.72-34.08,28.93,9.34,26.58,31.57S611.25,262.09,548.37,209.49Z" style="fill:none"/></clipPath><clipPath id="e10c5096-bb1c-40f6-85b2-6e7cf1a67aaa"><path d="M650.68,151.84c-11.21-6.73-44.25-12.56-55.4-8.08-9.47,3.78-13.72,9.54-14.67,21.51-1.26,16.12,6.26,26,3.88,36.23-1.3,5.35-6.4,36.92-3.72,56.68,2.42,17.78,67.36-10.11,80.45-15.92a1.84,1.84,0,0,0,.93-2.42,1.7,1.7,0,0,0-.29-.46c-6.55-7.54-29.69-36.38-14.06-51.4C660.14,176.26,650.68,151.84,650.68,151.84Z" style="fill:none"/></clipPath></defs><path id="ee3815a3-5dd2-4112-831c-cf886ea1082a" data-name="Path 1" d="M782.37,701.12c-45.36,21.47-92.77,37.94-139.8,55.23-21.55,7.95-43.29,13.92-60.89,28.28-16.48,13.48-26.79,33.1-44.17,45.75-13.53,9.83-29.86,14.93-46.23,18.26a255.19,255.19,0,0,1-200.83-44.82c-51.89-38.68-87.63-98.13-98.13-161.92-6.36-38.68-.57-78.59-8.6-117.06-8.47-40.65-34.6-70-56.24-104.27a300.65,300.65,0,0,1-34.56-77.1c-4.48-15.63-7.68-32.14-4.83-48.17C95.9,251.79,143.76,228.48,187,219A412.08,412.08,0,0,1,351,216.85c42.41,8.16,87.46,25.46,131.27,19.89,49.44-6.33,75-49.92,112.22-78.11,83.6-63.4,218.34-36.14,287.72,35.87,85.65,88.91,136,263.52,65.5,373.1-38.41,59.72-99.27,101.86-163.37,132.47A21.29,21.29,0,0,1,782.37,701.12Z" style="fill:#f3fbff"/><circle cx="941.26" cy="410.38" r="71.42" transform="translate(-14.5 785.77) rotate(-45)" style="fill:none;stroke:#5260ff;stroke-miterlimit:10;stroke-width:0.9157000398463996px;stroke-dasharray:13.199760437011719,13.199760437011719"/><circle cx="939.57" cy="410.58" r="47.25" style="fill:none;stroke:#5260ff;stroke-miterlimit:10;stroke-width:0.6058263228489803px;stroke-dasharray:13.492305755615234,13.492305755615234"/><circle cx="189.58" cy="654.07" r="71.42" transform="translate(-406.97 325.62) rotate(-45)" style="fill:none;stroke:#5260ff;stroke-miterlimit:10;stroke-width:0.9157000398463996px;stroke-dasharray:13.199760437011719,13.199760437011719"/><circle cx="187.89" cy="654.26" r="47.25" style="fill:none;stroke:#5260ff;stroke-miterlimit:10;stroke-width:0.6058263228489803px;stroke-dasharray:13.492305755615234,13.492305755615234"/><circle cx="328.39" cy="359.78" r="80.11" style="fill:none;stroke:#5260ff;stroke-miterlimit:10;stroke-width:1.02703764076397px;stroke-dasharray:14.804685592651367,14.804685592651367"/><circle cx="326.5" cy="360" r="53" style="fill:none;stroke:#5260ff;stroke-miterlimit:10;stroke-width:0.6794871794871795px;stroke-dasharray:15.132800102233887,15.132800102233887"/><path id="eddc969a-a498-4d29-aebe-8fe0451ffecb" data-name="Path 3" d="M410.39,10.78c-4.51-1.62-9-3.61-13.74-3.23-5.07.27-10.35-.81-15.24,1.24A34.6,34.6,0,0,0,370.76,15c-2.41,1.94-4.55,4.47-7.3,5.6-5.24-.27-10.48-.06-15.71.16a36.14,36.14,0,0,0-12.88,5.91C331.13,29,329.11,33.8,326.92,38a35.68,35.68,0,0,0-3.22,13c-7.81-.06-16.1.1-23,5.32-2.92,2.48-6.49,4.14-8.55,7.91-3,5.22-5.71,11.35-5.1,18.07,1.89.11,3.82.27,5.71.27,63.79-.16,127.59.17,191.34-.16-.3-5-.77-10.27-3-14.57-1.84-3.5-3.43-7.48-6.44-9.58a32.56,32.56,0,0,0-17.21-8c-6.79-1.51-13.65-.38-20.53-1.08,0-6-2-11.4-3.95-16.72a22.86,22.86,0,0,0-3.86-6.3,40.47,40.47,0,0,0-8-8.5C417.6,15.24,414.29,12.17,410.39,10.78Z" style="fill:#c7ecff;opacity:0.300000011920929;isolation:isolate"/><g id="ae5b2d53-0fe2-46ac-a112-c5f807d4787f" data-name="Group 1"><g id="ad8eaa05-540d-4fec-b759-2e15c1c3a66a" data-name="Group 7157"><g id="bd5ad509-ec2d-43cd-8783-00119af7948c" data-name="Group 7133"><path id="ae530203-cf2d-48bd-ad8c-c11accd15b45" data-name="Path 9560" d="M391.49,677.43l9.46-1.8-.87-36.19-14.93,5.85,6.06,22.92-14.68,4.11Z" style="fill:#fdcbaa"/></g><g id="bf8880ea-7014-45df-98b1-831b58ca4d02" data-name="Group 7134"><path id="ec55695d-a0e9-466c-84de-528c6a74b296" data-name="Path 9561" d="M452.52,643.58l-5.16,4.7-3.08,5,20-5.66.73-3.59L451.71,625.6l-22.95-.35Z" style="fill:#fdcbaa"/></g><g id="b6d5e4d0-6afd-47e9-a682-06f498e5851b" data-name="Group 7135"><path id="a650a708-90c8-4bcd-b0d7-868c2058fd07" data-name="Path 9562" d="M395.84,216.87a23.36,23.36,0,0,1,25.09,18.54c1.79,9.05,1.12,22.32-5.57,41.62l-30.64-10.36-20.78-24.06S365.3,219.42,395.84,216.87Z" style="fill:#ffb13d"/></g><g id="a10afb8f-423e-4405-86ba-77bfba547d84" data-name="Group 7136"><rect id="a70e9880-234a-4297-a857-dc07ca9d2aea" data-name="Rectangle 3669" x="392.88" y="255.02" width="23.98" height="55.84" transform="matrix(0.81, -0.59, 0.59, 0.81, -89.01, 290.81)" style="fill:#fdcbaa"/></g><g id="a2d079df-cb41-4276-b278-58584d6667ae" data-name="Group 7137" style="opacity:0.200000002980232"><path id="b10fe797-f178-4a04-94e5-5a9b4e2ac5a4" data-name="Path 9563" d="M392.87,286.85l23.63-8.24L398.23,253.3l-19.44,14.05Z" style="fill:#494949"/></g><g id="f78a6262-8d02-47aa-ab9b-9a3ebc8ea264" data-name="Group 7138"><path id="ac85743b-1245-4e70-adac-d59ae2ac209a" data-name="Path 9564" d="M364,242.59s-4,12.37-1,19l3.21,4s.51,8-1.25,10.82a.23.23,0,0,0,.05.35c.71.6,3.32,2.64,5.66.92l7.42,12.1a5.62,5.62,0,0,0,7.73,1.85c.14-.09.27-.17.4-.27l12-8.43a13.19,13.19,0,0,0,3.38-17.56l-2-3.26s2.15,1.38,2-6.56c-.05-3.15-1-7.39-3.86-8.67-1.09-.46-5.63.27-6.06.9-.93,1.31-1,6.77-1,9.41a.29.29,0,0,1-.27.3.28.28,0,0,1-.27-.17C387.81,252.32,378.79,235.41,364,242.59Z" style="fill:#fdcbaa"/></g><g id="aef2645f-1c26-4883-bfaa-75532478773f" data-name="Group 7139"><path id="a3b13254-a926-4295-aa2a-f65d31b1e00f" data-name="Path 9565" d="M423.87,249.82c.43-7.32-.09-14.79-2.72-21.7l.51-1.06c1.55-4.7,3.62-9.63,7.78-12.26a11.76,11.76,0,0,1,16.25,3.6,12,12,0,0,1,.93,1.78c1.23,2.91,1.23,6.14,1,9.3a71.18,71.18,0,0,1-7.2,26.62c-2.75,5.51-6.2,10.71-8,16.61-1.25,4.18-1.95,10.41,1.06,14a27.23,27.23,0,0,1-5-7.7,8.3,8.3,0,0,1-1.8,6.23c-.16-4.08-3.75-7.18-5-11.07a16,16,0,0,1-.6-5C421.09,262.57,423.46,256.48,423.87,249.82Z" style="fill:#ffb13d"/></g><g id="b3ce5ec4-a947-4d23-ac95-325270bc12d4" data-name="Group 7140"><path id="b44861e3-c37b-4939-830f-573182221349" data-name="Path 9566" d="M364.43,240.85a2.27,2.27,0,0,1,.66-.87c.19-.19.32-.44.51-.63a8.39,8.39,0,0,1,2-1.39,15.4,15.4,0,0,1,4.65-1.33l.19,0c6.37-.87,13.81-.32,18.84,4,5.58,4.79,12.13,7.54,18.71,10.77a15,15,0,0,1,5,3.4c1.85,2.23,2.12,5.36,2,8.27a41.49,41.49,0,0,1-1.3,8.94,17.66,17.66,0,0,0-.63,3.53c0,.58.79,1.15.55,1.77-1.28,3.13-7.42-.54-8.87-1.85a17.25,17.25,0,0,1-4.89-7.34c-.71-2.23-3.62-3.42-3.26-6.06a8.72,8.72,0,0,1,1.28-2.83,8.69,8.69,0,0,0,0-7.91,6.69,6.69,0,0,0-3.46-3.19,4.74,4.74,0,0,0-4.54.63,3.83,3.83,0,0,0-1.17,4,40.82,40.82,0,0,1,.66,5.17,3.65,3.65,0,0,1-.57,2.55,7.09,7.09,0,0,1-3.35-3.48,20.46,20.46,0,0,0-2.53-4.21,10.37,10.37,0,0,0-5.76-2.75c-1.17-.19-2.53.14-3.64-.1s-2.1-1.15-3.08-1.6a43.88,43.88,0,0,0-4.73-1.74,25.12,25.12,0,0,1-2.36-.93c-.36-.16-1.47-.52-1.6-.9a3.79,3.79,0,0,1-.11-1c0-.3.19-.6.27-1s.14-.3.14-.49A5,5,0,0,1,364.43,240.85Z" style="fill:#ffb13d"/></g><g id="b6f0dbf6-383e-4065-a426-3773560cd77f" data-name="Group 7141"><path id="e7cc904a-6160-44af-9b48-1973f239489b" data-name="Path 9567" d="M393.52,544.45l63.7,88.82-13.51,3.59-63.54-49.37Z" style="fill:#0b3c4f"/></g><g id="e9cb1082-08ca-4625-82bf-cde2f454f0c2" data-name="Group 7142" style="opacity:0.300000011920929"><path id="ae1d4dd1-c9c6-44e4-b17c-bdbc800bc69d" data-name="Path 9568" d="M403,560.79l2.06,47.85-24.87-21.15,13.34-43L403.45,557Z" style="fill:#191c3c"/></g><g id="f4f9b9c8-12fb-494f-8fa9-690624789090" data-name="Group 7143"><path id="bc96aacc-dd4c-4d02-bb72-adb450109b3e" data-name="Path 9569" d="M362.07,433.09v118.4l23.08,93.77,15.33,3.29-2-87.79,9.09-71.61,11.72-20.83a29.82,29.82,0,0,0,3.56-18.62l-1.2-8.78Z" style="fill:#0c4968"/></g><g id="a2486ad0-12e9-4218-8089-99bd7d8944cf" data-name="Group 7144"><path id="e428ef5a-0188-496d-9378-2a59f6d56b4e" data-name="Path 9570" d="M334.66,366.07l-.19-1-6.22-3,4.46-6.41a1.59,1.59,0,0,1,1-1.47l6.69-2.59a2.55,2.55,0,0,1,2.28.22l9.68,6.2h8.84l7.5,3.51v11.5H353s-9,4.95-12.24,4.57c-1.33-.17-4.46-3-4.46-3l-2.69.47a3.34,3.34,0,0,1-3.45-1.58l-1-1.74-2.83-.08a2.43,2.43,0,0,1-2.31-2l-.3-2s-2.34-.73-2.78-1.36-.43-3.83-.43-3.83l4.32,1.85,16.94,9.41,3.4-1.85Z" style="fill:#fdcbaa"/></g><g id="e9caf42c-538c-4afa-ae55-b8df4eb9891e" data-name="Group 7145" style="opacity:0.200000002980232"><path id="ad252b44-efca-48ea-a221-dcfc6109e3b9" data-name="Path 9571" d="M358.91,367.49l-2.2-9.41h4.46l7.5,3.48v11.5H358.45Z" style="fill:#1d1d1b"/></g><g id="acf13787-c4e2-40e8-8c60-c70683d95bc3" data-name="Group 7146" style="opacity:0.300000011920929"><path id="b082b8e8-b0af-49c4-9571-9dabe7e508f6" data-name="Path 9572" d="M362.07,433.09,421.72,441l1.2,8.78a29.71,29.71,0,0,1-1.14,12.94c-11.07-6.25-39.15-21.26-59.7-25.12Z" style="fill:#191c3c"/></g><g id="b43fa76f-ae9f-4776-9fba-dd09c99b50cc" data-name="Group 7147"><path id="a80cb5d9-97f8-4952-a927-0a7b298c8aa3" data-name="Path 9573" d="M429.55,296.61l9.62,9.3L426.56,461s-42.66-25.52-68.62-28.54l5.43-64.95-2.5-10.85a27.73,27.73,0,0,1,6.23-20.23l32.84-39.8h0a12.07,12.07,0,0,0,13,4.57Z" style="fill:#ffc409"/></g><g id="a560803f-e980-449a-8ede-4dfde4511019" data-name="Group 7149"><g id="adf98612-ac88-4791-9a36-c76221831baa" data-name="Group 7148" style="opacity:0.300000011920929"><path id="b325c648-dfc7-4bb1-bc2b-5c5adf415b76" data-name="Path 9574" d="M421.34,305.91l8.18-9.3,9.62,9.3L426.53,461s-7-4.18-17-9.38Z" style="fill:#d1d3d4"/></g></g><g id="b905c89b-07b4-486d-9a83-0e649b0cb276" data-name="Group 7150"><path id="e9857a68-b75a-4aa5-b186-c4ea1e434b9d" data-name="Path 9575" d="M304.76,354.57l38,20.09a1.81,1.81,0,0,0,2.47-.76l.41-.79a1.88,1.88,0,0,0-.76-2.5l-38-20.09a1.88,1.88,0,0,0-2.5.76l-.41.79A1.9,1.9,0,0,0,304.76,354.57Z" style="fill:#191c3c"/></g><g id="fd337839-d659-44e8-ad55-361bf5552a51" data-name="Group 7151"><path id="b861d00e-3912-4642-98ee-63e06511484f" data-name="Path 9576" d="M392.84,466.37l-5.11,5.14a3.59,3.59,0,0,0-1,1.79c-.84,3.89-3.42,17.29.25,18.81,1,.41,3.07-3,3.07-3s1.39,3.83,2.53,3.83,2.61-3.75,2.61-3.75,1.06,3.64,2.12,3.75c1.25.13,3.26-3.75,3.26-3.75s2,3.59,3.16,3.34c1.44-.3,2-5.55,2-5.55l2.5-10.68a5.37,5.37,0,0,0-.87-4.38L404.59,468l1.9-10.16-12.15-1.77Z" style="fill:#fdcbaa"/></g><g id="aef4728d-18b9-4be4-8ce6-12305c50dbd3" data-name="Group 7152" style="opacity:0.200000002980232"><path id="b682f168-0d88-4ad7-8005-a0844366dc67" data-name="Path 9577" d="M394.37,456.06l12.15,1.77-1.58,8.35H392.87Z" style="fill:#191c3c"/></g><g id="b8fd3b22-3394-4845-9e13-71d5d3a4de48" data-name="Group 7153" style="opacity:0.200000002980232"><path id="e68c3b31-c6d4-46d2-8189-26a679abc4bd" data-name="Path 9578" d="M363.35,367.49l-.41-1.8h0c4.52-.05,6.61,2.18,13.54.46,2.34-.57,2.94.87.6,1.17-3.07.38-6.47,4-9.38,4.46a1.65,1.65,0,0,1-1.27,1.71,9.06,9.06,0,0,1-1.26.25,5.35,5.35,0,0,1,.6,1.82c0,1-.6,1.55-.9,2.48-.38,1.22-.3,2.33-1,3.53a23.93,23.93,0,0,1-2,2.88Z" style="fill:#1d1d1b"/></g><g id="eb4826d3-0c4f-446f-8d9d-20d5b52b5829" data-name="Group 7154"><path id="fc489a54-8273-4a86-9f82-fe8fd7541a3d" data-name="Path 9579" d="M423,236.88l.49-.19a2.93,2.93,0,0,0,1.76-3.7l-2.88-8.1a2.93,2.93,0,0,0-3.7-1.77l-.49.19a2.93,2.93,0,0,0-1.76,3.7l2.91,8.1a2.84,2.84,0,0,0,3.6,1.79Z" style="fill:#191c3c"/></g><g id="b068574a-8e8f-4d5a-b090-205d0029da7b" data-name="Group 7155"><path id="b5a4b1bd-c3ad-4b6f-83ea-937e0fd00f42" data-name="Path 9580" d="M429.55,296.61l9.6,9.3-8.21,80.39-21.83,76.92H390.53L411,382.71l.54-70.09Z" style="fill:#ffc409"/></g><g id="fd09696b-7157-4aa5-bd8f-18a6913cad89" data-name="Group 7156" style="opacity:0.200000002980232"><path id="adb61236-5ba8-4639-9bb1-d2c10e8cef41" data-name="Path 9581" d="M411.28,385.08a1.85,1.85,0,0,1-.08-1,6.91,6.91,0,0,1-1.74-2.31c-2.2-4.26.19-14.79.19-19.49,0-5.85.73-11.66.9-17.51.08-3-.36-5.87-.39-8.81,0-2.36,1.47-4.16,1.77-6.41,1,2.93.38,5.81.44,8.83.05,4.27.13,8.57.19,12.83a98,98,0,0,0,.7,12.35,23.18,23.18,0,0,1,.55,4.92,38.66,38.66,0,0,0,.19,5.38,37.52,37.52,0,0,0,.6,4.73c.57,2.64,2.58,3.16,4.73,4.65a6.58,6.58,0,0,0-2.37-.38.38.38,0,0,0-.3.11c-.08.11,0,.27.09.38a23.79,23.79,0,0,0,2.36,3.29l-6.28,1.14c.9.14,1.82.25,2.72.38-.84.68-1.69,1.36-2.53,2a9.34,9.34,0,0,0-2.26,2.22,11.13,11.13,0,0,0-1,2.18,77.09,77.09,0,0,0-3.4,12.86c-.41,2.15-1,4.38-1.2,6.55-.08.71.14,1.47,0,2.18a8.12,8.12,0,0,1-1.47,2.63,18.43,18.43,0,0,0-2,5.41c-.6,2.4-1.23,4.79-1.83,7.18-.76-2.31.41-4.73.76-7.15a18,18,0,0,0,.17-2.74,113.65,113.65,0,0,1,2.44-19.63c1.06-5.52,2.5-12.51,7.13-16.24C410.71,385.48,411,385.27,411.28,385.08Z" style="fill:#1d1d1b;opacity:0.300000011920929;isolation:isolate"/></g><path id="fceed0f8-e60d-433c-b205-38b7bcfe0dff" data-name="Path 9582" d="M391.21,668.21s-27.13,3.81-25.63,9.13S400.92,680,400.92,680l0-6.6S365.06,677.07,391.21,668.21Z" style="fill:#22343d"/></g><path id="efcc02ce-5492-4228-bc68-5aaf55033fd7" data-name="Path 9612" d="M452.52,643.58s-22.32,14.76-18.65,18.9,34.56-12.76,34.56-12.76l-3.37-5.65S432.81,662.91,452.52,643.58Z" style="fill:#22343d"/></g><path id="a6b80528-366d-4e32-b3cd-d2f0990173fc" data-name="Path 3" d="M141.43,114.26c-2.85-.82-5.71-1.82-8.7-1.63-3.2.13-6.55-.41-9.65.62a23.93,23.93,0,0,0-6.74,3.13c-1.52,1-2.88,2.26-4.62,2.83-3.32-.14-6.64,0-10,.08a25.85,25.85,0,0,0-8.16,3c-2.37,1.2-3.64,3.62-5,5.74a15,15,0,0,0-2,6.55c-5,0-10.2.05-14.54,2.69-1.85,1.25-4.11,2.1-5.41,4C64.66,143.9,63,147,63.35,150.4c1.2,0,2.42.13,3.62.13,40.4-.08,80.8.09,121.17-.08-.19-2.53-.49-5.19-1.9-7.37-1.17-1.76-2.17-3.78-4.08-4.84a23.3,23.3,0,0,0-10.9-4.05c-4.3-.76-8.64-.19-13-.54,0-3-1.3-5.76-2.5-8.46a11.63,11.63,0,0,0-2.44-3.18,23.33,23.33,0,0,0-5.09-4.3C146,116.52,143.91,115,141.43,114.26Z" style="fill:#c7ecff;opacity:0.300000011920929;isolation:isolate"/><g id="e0d0c6e8-547c-4a22-b97e-cbf19badf913" data-name="Group 3" style="opacity:0.400000005960465"><circle id="eb8bdd04-f09b-4cd2-ba56-29b6240e05f6" data-name="Ellipse 1274" cx="488.34" cy="747.57" r="12.83" style="fill:#e8edf0"/></g><g id="f265cf6b-f159-41b7-b901-e705a64c63eb" data-name="Group 10"><g id="aa9078c5-8a44-44d3-afb2-fa28bbf310a0" data-name="Group 7190"><g id="f6dbc098-16c9-477a-a394-7365b5d12bb6" data-name="Group 7189"><g id="baa8a83a-a7a6-4b73-b11e-e3578fc1c42e" data-name="Group 7158"><path id="bdfdbb23-d969-4a08-b750-738c59a9166e" data-name="Path 9583" d="M867.93,877.22l-22,9.28-.31-27.4,22.82,5.59Z" style="fill:#fdcbaa"/></g><g id="e2ffebdb-eb00-47ae-9581-104b7f03ef52" data-name="Group 7159"><path id="b3b25c5e-94d7-4137-9717-620d9cfc8d8c" data-name="Path 9584" d="M835.18,575.42l37.4,165.5-4.11,124.15H845.65S823.33,779,834.71,743.18l-44.6-103.24Z" style="fill:#184968"/></g><g id="f59a9076-b091-4e41-9486-bc0ae55d75ea" data-name="Group 7166"><path id="ad973fb3-8d94-4e84-b21a-bc99349087e2" data-name="Path 9588" d="M784.12,886.1h-21v-21h21.44Z" style="fill:#fdcbaa"/></g><g id="e03e4d88-26fe-4422-9f12-1ade05506cbd" data-name="Group 7167" style="opacity:0.300000011920929"><path id="a4e71d88-35a1-45aa-b420-2d2de89880c2" data-name="Path 9589" d="M838.14,588.65l-12.79.8-35.27,50.49,18.71,43.33,10.34-48.81,22.28-31.34Z" style="fill:#191c3c"/></g><g id="ba8824ea-2c27-454c-b15c-15fc1b528e14" data-name="Group 7168"><path id="f0967015-ec53-46a0-b8a7-166f705a144d" data-name="Path 9590" d="M751.36,593.66l1.69,142.66c-15.15,31.13,10.1,128.75,10.1,128.75l21.44.57L788,750l24.4-115.46,33.26-46.65Z" style="fill:#184968"/></g><g id="bd59b552-a8cf-4d25-b0be-4fc2dc1664fd" data-name="Group 7173"><path id="fb0cbd70-4351-4b15-976d-348494f403ae" data-name="Path 9596" d="M943.7,408.12l5.12,6.5a8.44,8.44,0,0,1,1.51,7.34l-2.83,10.53-8.11,7.17-38.61,68.7L864.26,497l5.39-30.36,15.15,5.89,40-45-.64-12.52a5.17,5.17,0,0,1,4-5.32l6.06-1.49.7,7.35" style="fill:#fdcbaa"/></g><g id="a8b9b7ab-8d0a-4c62-a785-d5dba1fe916a" data-name="Group 7174"><path id="aee5f1cb-c588-4af6-a92f-781439201c32" data-name="Path 9597" d="M807,447.54l-59.88-15,39.42-84.12,28.61,25.28-13.33,38.78Z" style="fill:#fdcbaa"/></g><g id="ab41afb7-9e25-4c21-95f9-db708068d8bd" data-name="Group 7175" style="opacity:0.200000002980232"><path id="a5fbb016-7b0c-44b7-83a8-d104263dcf7e" data-name="Path 9598" d="M878.5,470l-8.85-3.44L864.26,497l9.56,3Z" style="fill:#494949"/></g><g id="f96b0072-f1cb-4e64-a907-7c6068f17432" data-name="Group 7176"><path id="a9ba4b34-f183-46c8-a797-00254ed712d8" data-name="Path 9599" d="M801.79,412.47l39.38,22.78a9.86,9.86,0,0,1,2,1.49l29.35,26.5L866.65,501,792.4,456.87Z" style="fill:#5260ff"/></g><g id="e14372c3-97df-4e49-9f2b-325849dd95a3" data-name="Group 7177"><path id="e44a916d-a0fd-4e37-b749-5ddb4146f863" data-name="Path 9600" d="M731.64,453.37,747.09,597.8h106.1L825,429.16l-23.23-16.69-18.54,22L759.17,405.7Z" style="fill:#5260ff"/></g><g id="ad97721f-ab14-479b-99ce-4215afa21d07" data-name="Group 7178"><path id="eb0a4a82-96ba-4f1d-831b-b70670530cbc" data-name="Path 9601" d="M782.67,362.11a143.39,143.39,0,0,1-8.55,17.2c-1,1.72-2.63,5.93-4.85,6.4-2.93.6-2.93-2.56-2.86-4.48.07-3.1-1.34-6-1.78-9.12-.2-1.45-.17-2.9-.31-4.34-.33-3.47-1.58-6.74-2.35-10.14-1.51-6.69,1.25-12.38,4.48-18.14a98.73,98.73,0,0,1,5-8.75c2.42-3.47,5.92-3.4,9.25-5.52,2.56-1.65,4.28-4.78,7.28-5.32,3.7-.68,7.47,3.13,11,1.64s6.93-3.5,10.9-1.27c1.35.77,2.56,1.88,4.11,2.08a14.08,14.08,0,0,0,3.17-.3,15.27,15.27,0,0,1,6.09,1c1.88.61,4,1.42,4.61,3.27.37,1.11.14,2.39.64,3.43a4.49,4.49,0,0,0,3.74,2,11.41,11.41,0,0,1,4.31.88c2,1.18,2.66,7.27,1.68,9.22-1.08,2.22-3.87,3.07-6.33,2.93s-4.85-1-7.3-1.11-5.25.57-6.43,2.76a9,9,0,0,0-.75,2.15c-1,4-2,8.05-3,12.08-.94,3.77-2,7.75-4.78,10.44a11.48,11.48,0,0,1-11.18,2.42,13.82,13.82,0,0,1-8.38-8.05,15.82,15.82,0,0,0-2.05-4.41c-1-1.24-3.1-1.88-4.31-.8A4.51,4.51,0,0,0,782.67,362.11Z" style="fill:#4d5068"/></g><g id="bf16521f-33cc-4176-ace8-5d6bc65c8026" data-name="Group 7179"><path id="f4c2f9e2-35de-4a7f-9d48-e73038e47f83" data-name="Path 9602" d="M831.31,345.41v19.36l-2.53,2.52s5.49,7.58,5.06,15.59h-5.05v9.56a14.84,14.84,0,0,1-14.85,14.84h-1.88a20.74,20.74,0,0,1-20.74-20.73v-8.32s-8-3.8-8-10.94c0,0-1.28-10.94,5.49-10.53,0,0,8.85-.44,9.26,6.73l9.62.84v-5.42a7.27,7.27,0,0,1,6.77-7.23h0l.4-11.35C814.92,340.37,826.26,338.28,831.31,345.41Z" style="fill:#fdcbaa"/></g><g id="ed1ebcca-4d5b-4455-afb7-d552ca2c29d6" data-name="Group 7180"><path id="e6177962-db42-44bb-a69e-bcd48325f0ef" data-name="Path 9603" d="M827.94,397c-1.48-.81-2.08,1.42-2.25,2.43s-.47,2.22-1.45,2.45a2.77,2.77,0,0,1-1.28-.1,12.46,12.46,0,0,1-1.88-.6,7.17,7.17,0,0,1-1.38-.91c-1.65-1.21-3.07-2.42-3-4.55s.64-4.14,2.8-5.08a11.79,11.79,0,0,1,5.59-.54c1.44.11,3.5.85,4.51-.6a3.1,3.1,0,0,0,0-2.66,4.34,4.34,0,0,0-.64-1.42c-.91-1.17-5.22-.8-6.7-.87a30,30,0,0,0-5.19-.17,6.57,6.57,0,0,0-4.3,2.16c-.88,1.11-1.38,2.65-2.7,3.16a3.21,3.21,0,0,1-1.71.1A4.75,4.75,0,0,1,805,387.9c-1-1.65-.37-3.74.17-5.59,1.18-4.14.67-8.45,1.78-12.49.61-2.22,1.75-7.61-.07-9.49h-9.82c1,4.54,2.18,12.65.4,17-3.13,7.54-9.39,18.28-2.05,25.35a24.09,24.09,0,0,0,7,4.14,19,19,0,0,0,5,1.64c2,.24,4-.16,6-.06,2.52.1,5,1,7.54.54a13.12,13.12,0,0,0,4.54-2.12,2.22,2.22,0,0,0,.81-.68,7,7,0,0,0,.51-1.41,5,5,0,0,1,.57-.94,7.6,7.6,0,0,0,1.24-4.59C828.62,397.93,828.45,397.25,827.94,397Z" style="fill:#4d5068"/></g><g id="b62834be-a46e-4ca4-8b65-00b461ab5e26" data-name="Group 7182" style="opacity:0.140000000596046"><g id="bdf75eac-5909-4fbe-af8a-e2ac7dd09a92" data-name="Group 7181"><path id="fc9fb548-bc52-44e6-89dc-65e260db9159" data-name="Path 9604" d="M840.08,786.44a3.51,3.51,0,0,1,.37,1.28c0,1.07-.84,1.95-1.55,2.75-2.69,3.17-3.1,8.18-3.57,12.16,3-1.28,5.76-2.49,8.65-4.08a19.53,19.53,0,0,1,.2,3.5,4,4,0,0,1-.2,1.42,4.65,4.65,0,0,1-.84,1.31,38.12,38.12,0,0,0-5,7.47,18.31,18.31,0,0,0-1.49,8.45c-2.12-5.92-2.25-13.63-3-20-.84-7.13-1.52-14.3-1.85-21.51-.54-11.91-.64-24.57,3-36.05-.5-1.18-3.53-6.16-3-7.2.6-1.21,4.1.81,5.52,1.08a63.8,63.8,0,0,0,7.57.43c.61,0,1.39.21,1.49.81a1.12,1.12,0,0,1-.14.71c-1.18,2.59-4.17,2.93-5.86,5.15a20.76,20.76,0,0,0-3.33,8.68c-.64,3.37-1.55,6.84-1.86,10.27,1.38.24,2.93-.13,4.25.84.94.81.16,2.43-.85,3.2s-2.35,1.41-2.62,2.66a3.23,3.23,0,0,1,2.35,1.18c.37.43-2.89,5.92-2.89,6.93,0,1.75,1.11,3.43,2.28,5.08C838.55,784.18,839.42,785.33,840.08,786.44ZM809.46,684.78s21.38,49.52,21.38,49.55c-.14-.37,4.34-4.47,4.78-5.08-1-.44-2.46-.44-3.37-1.28-1.88-1.75-2.63-5.69-4.38-7.84a10.46,10.46,0,0,1-2.55-3.87c-.37-1.52.53-3.47,2.08-3.47a27.29,27.29,0,0,1-7.17-12.66c-.8-3.33-1-6.79-2.18-10a11.24,11.24,0,0,0-3.81-5.32c-.3-.23-5.75-2.22-4.78,0Z" style="fill:#191c3c"/></g></g><g id="a7fcfe7b-f069-4415-8c45-7ddded3b1f01" data-name="Group 7185" style="opacity:0.270000010728836"><g id="bafcf3bb-82c7-47dd-ae13-3cb044660903" data-name="Group 7183"><path id="f947ab80-d442-4caf-9332-4e4c1f4d83ae" data-name="Path 9605" d="M744.26,571.34l.57,5.36a1.77,1.77,0,0,0,.37-1.82A28.83,28.83,0,0,1,744.26,571.34Z" style="fill:#bfbfbf"/></g><g id="b7c46bf4-676e-4f5c-b03d-4b870a64417b" data-name="Group 7184"><path id="aedf9691-2d9d-4b8b-accd-5aa57f14cbc0" data-name="Path 9606" d="M743.79,509.14c-3.2-.81,3.1-3.43,5.42-6.09.34-.88-7-1.05-7.71-1.52.44-3.2,0-6.09.44-9.28,1.68-.88,7.88-1.55,6.29-2.12-8-2.7-1.44-37.44.91-42.62,1.12-2.42-8.14,12.63-9.25,15.08-2.83,6.26-3.67,12.66-5.22,19.09l.94,8.88c.4.07.77.14,1.18.24-.4.33-.74.64-1,.94L738,512.58c.64.06.13,1.95.77,2-.61.88,0,0-.47.91l5.22,48.84c3.56,20.64,4.07-13.26,3.56-19.12-1-11.88-7.23-25.81,1.15-27.77C750.12,517.05,745.54,509.34,743.79,509.14Z" style="fill:#616393"/></g></g><g id="acbe41a0-d4fe-4f5d-9c02-e939d3cf25b9" data-name="Group 7186"><path id="bbbb45d9-3ae6-4315-8116-dddd157368d6" data-name="Path 9607" d="M703.84,501l-2.12,24,21.47,101-2.52,13,2.52,17.27,6.19,5.45,8.52,2.52,9.19,3.37H751l8.21-3.37-5.28-6.73-2.09-10.7,3.36,5.65,6.37,1.68-8-19.79-13.23-13.7-8.62-87.48L735,501Z" style="fill:#fdcbaa"/></g><g id="ad928bec-fb66-4489-a8e6-58884618f2db" data-name="Group 7187"><path id="a4dd1a46-8c74-4fd5-9002-9b74369f44a0" data-name="Path 9608" d="M703.23,507.76h31L735,501H703.84Z" style="fill:#494949;opacity:0.200000002980232;isolation:isolate"/></g><g id="ab9da851-99ce-46ca-8df2-1f4910f53ca2" data-name="Group 7188"><path id="b11e747c-4187-4dae-be02-b197eff34665" data-name="Path 9609" d="M759.17,405.7l-48.06,27.43a17.85,17.85,0,0,0-9,14.68L699.63,501h38.31l2.35-36.53Z" style="fill:#5260ff"/></g></g><path id="bcf84939-4628-4f7e-94ed-0e5a2c4a2955" data-name="Path 9610" d="M911.69,900c-1-1.31-16.73-7.2-26.39-11.75a46.8,46.8,0,0,1-13.09-10l-1.92-2.08c-1.52-1.72-2.39-2.9-2.39-2.9s-5,6.16-12.12,8.28-9.9.94-9.9.94l0,16.73c0,2.9,1.61,6,4.24,6.8h0s55.4.44,59.88.44S912.7,901.32,911.69,900Z" style="fill:#184968"/><path id="abcce8ee-5049-4e7e-bc14-87697cf780dc" data-name="Path 9611" d="M826.43,900.27c-1-1.24-16.1-6.93-25.35-11.3a45,45,0,0,1-12.59-9.6l-1.85-2c-1.45-1.65-2.33-2.79-2.33-2.79s-4.84,5.92-11.64,7.94-9.53.91-9.53.91l0,16.1c0,2.79,1.54,5.75,4.07,6.53h0s53.25.4,57.56.4S827.41,901.52,826.43,900.27Z" style="fill:#184968"/></g><g id="e21efb58-0565-4122-b771-29238e171779" data-name="Group 7202"><path id="ae88d5a7-25a5-4a5c-b49a-77a217079228" data-name="Path 9621" d="M951.41,386.92l-25.85,43.92a2.3,2.3,0,0,0,.81,3.13l.77.44a2.29,2.29,0,0,0,3.13-.81l25.85-43.92a2.3,2.3,0,0,0-.81-3.13l-.77-.44A2.28,2.28,0,0,0,951.41,386.92Z" style="fill:#191c3c"/></g></g><path id="a0cab883-725d-4c3d-8ec5-643825622f58" data-name="Path 9588" d="M222.92,821.36l18.45,13.91,14.28-18.08-18.14-14.32" style="fill:#fdcbaa"/><path id="b878b38b-f8c9-4a0b-9c26-005ba1cab250" data-name="Path 9611" d="M224.79,881.4c-.41-1.69,5-18.6,7.5-29.55a49.33,49.33,0,0,0,.3-17.39l-.47-3c-.44-2.37-.83-3.91-.83-3.91s8.4-.14,14.77-4.63,7.27-7.59,7.27-7.59l13.86,11c2.41,1.9,3.9,5.26,2.85,8h0s-35.9,46.18-38.83,49.9-6-1.11-6.42-2.8" style="fill:#184968"/><path id="e1c79df4-80a6-4dff-8f58-e69e63ac2307" data-name="Path 9588" d="M161.84,832.05l.52,23.11h23V832.05" style="fill:#fdcbaa"/><path id="aeab930a-8171-4329-8ee9-78ce8f04203c" data-name="Path 9611" d="M115.88,870.73c1.07-1.37,17.68-7.62,27.84-12.43a49.23,49.23,0,0,0,13.83-10.53l2-2.22c1.59-1.81,2.55-3.07,2.55-3.07s5.33,6.51,12.8,8.72,10.46,1,10.46,1l0,17.68c0,3.07-1.7,6.33-4.47,7.18h0s-58.5.44-63.23.44-2.85-5.4-1.78-6.77" style="fill:#184968"/><path d="M226.19,509c-1.65-9.24-4.13-13.78-9.6-21.53a46.79,46.79,0,0,0-20.29-15.94c-5.35-2.22-26.09-8.7-26.09-8.7s-3.35-27.89-4.71-42.2c-5.72,4.54-11.91,6.74-17.55,12s-15.53,17-19.7,22-2.14,5.71-4.89,9.58c-8.75,4.06-12.23,3.77-22.73,8.78s-16.44,11.12-19.29,28.65c-1,6.44-2,15.27-3,24.9,13.7,5.92,34.57,14.41,34.57,14.41l-10,103.71c4.09.8,9.62,2.19,13.27,2.83,17.91,3.17,32.24,3.81,50.67,1.24,8.78-1.22,21.79-3.58,31.28-5-1.13-32-2.32-63.87-3.92-95.8l1.7-.87q1.44,12.33,3,24.63c9.19,5.47,11.85,8.66,21.08,13.87C225,560.76,230.31,532.11,226.19,509Z" style="fill:#fdcbaa"/><polyline points="193.4 838.21 154.26 836.77 148.47 616.43 196.3 616.43 196.3 677.31 193.4 838.21" style="fill:#5260ff"/><g style="clip-path:url(#b9057cb7-b038-49e8-851c-ca08d074ea81)"><polyline points="152.75 740.92 152.98 758.06 152.19 758.07 153.25 798.08 193.68 822.69 194.69 766.45 152.75 740.92" style="fill:#41469c"/><polygon points="183.45 764.63 150.27 740.24 145.88 659.31 149.56 663.39 183.45 764.63" style="fill:#41469c"/><polyline points="151.72 740.3 152.19 758.07 152.98 758.06 152.75 740.92 151.72 740.3" style="fill:#18357b"/></g><path d="M148.79,720.54l1.93-104-44.3.08L105.28,727.2a19.69,19.69,0,0,0,7.34,15.54l109,87.8,25.11-31.19Z" style="fill:#5260ff"/><path d="M165.6,424.17c.77-1.14,2.64-.59,3.62-1,6.63-2.62,8.66-5.3,7.31-12.4a15.36,15.36,0,0,1,1.66-11.35c2.14-3.61,1.5-6.46-1.48-9s-3.32-5-3.18-8.64a37.66,37.66,0,0,0,.2-6.25c-.56-4.21-3-6.65-7.17-7.21-2.83-.38-5.8.21-8.54-.2a21,21,0,0,1-7.85-2.53c-5.54-3.5-7.39-3.71-12.83.05-2.37,1.63-4.5,2-7.26.33-6.08-3.72-10.14-2.79-13.86,3.41a18.57,18.57,0,0,0-1.63,4.15c-1.33,4.4-3.82,6.65-8.23,7.69-3.58.83-4.89,3-4.6,6.5a14.28,14.28,0,0,0,2.09,5.81c2,3.54,1.66,6.22.08,9.75-2.73,6.1,6.49,10.64,9.24,15.42l8.23,0c.57-6.69-4.55-11.74-3.72-18.45.14-1.18,1.75-2.16,2.9-2.55a55.4,55.4,0,0,1,8.25-1.85,25.76,25.76,0,0,1,4.81-.1c2.44.06,5,.23,7.39.27.86,0,2-.41,2.6-.07,4.64,2.67,7.06,5.69,12.79,6.31.69.08,3.05,2,2.89,3.24-.78,6.28-.95,12.45-1.52,18.7C160.4,424.23,163,424.19,165.6,424.17Z" style="fill:#2a2c3d"/><path d="M112,390.13c-3.36,12.82-3.33,41.69,0,52.18,3,9.3,5.12,8.58,9.67,12.35,11.26,9.34,18.54,2.09,28.51-5.18,2.73-2,6.85-4.16,8.77-7.38.68-1.93,1.3-3.59,1.89-5.59-.45-9.66-1.83-22.72-1.85-31.59s1.19-13.57,1.3-21.65c-16,2-32.19,3.78-48.28,5.67" style="fill:#fdcbaa"/><g style="clip-path:url(#ba8c33f4-2374-428e-a337-584ba7ec7cdb)"><path d="M104.72,430.38c-1.11-6.31-4.87-11.5-5.79-17.89A44.44,44.44,0,0,1,99.47,399c1.76-10.53,3.33-21,10.34-29.46,5.09-6.17,12.63-5.68,19.91-5.87a1.33,1.33,0,0,1,.9,2.3,36.88,36.88,0,0,1,4-1.1l-29.73-13q-8.13,11.92-16.25,23.85C85,397.28,80.14,419,78,440.72c5.77,5.17,11.73,10.13,17.56,15.26.18-.27.52-.15.69-.5s.33-.93.88-1" style="fill:#aad6ec"/></g><path d="M123.59,448.69a17.49,17.49,0,0,0,8.15-1.12" style="fill:#fff"/><path d="M123.45,449.58a12.39,12.39,0,0,0,1.91.15,21.53,21.53,0,0,0,6.65-1.3.9.9,0,0,0,.58-1.14.89.89,0,0,0-1.13-.58,20.21,20.21,0,0,1-6.1,1.21,10,10,0,0,1-1.63-.13.91.91,0,0,0-.28,1.79Z"/><path d="M161.83,413.27c3.25-1.69,6.95-1.5,9.14,1.72s1.14,6.76-1.81,9c-1.47,1.14-3.15,1.13-5,1.11-1.09,0-2.73,0-3.9.06C160.73,421.21,161.26,417.26,161.83,413.27Z" style="fill:#fdcbaa"/><path d="M110.78,438.14c1.28,5.68-2.39,11.94-.15,17.82s12.5,4.62,21.9,5.42,26-9.1,27.18-21.48,3-15.6,1.45-26.42c-1.27.38-2.89,0-4.08.24-2.37,8.59-2.49,18-11.39,23.52S124.47,432.64,110.78,438.14Z" style="fill:#2a2c3d"/><path d="M152.9,380.6c8.86-2.36,13.23,4.1,13.88,12.69s-1.78,18.87-8.21,25.35a16.1,16.1,0,0,1-2.57-.21c2.14-6,3.67-20.48-4.56-20.2s-15,4.45-22.48,3.43-11.75-2.83-17.39-7c-.17,6.69-.52,13.39-.79,20.05-1.06-5.27-1.25,2.58-2.13-2.54-.52-3.09-1-18.36.78-20.61.68-.88,1.88-1.65,2.63-2.66-2.63-7.42-2.57-17.34,6.44-19.09s16.15,3.74,21.89,9.82C144.27,382.05,148.63,381.51,152.9,380.6Z" style="fill:#2a2c3d"/><path d="M137.37,399.87c-8.88-3.88-13.7-10.05-13.19-19.83" style="fill:#5a6172"/><path d="M128.67,399.3c-8.88-3.88-13.71-10-13.19-19.83" style="fill:#5a6172"/><path d="M163.7,411.84c-4.78.49-15.25,1.71-18.93,2.08-.93.1-1.46.16-1.79.21l-.53.1-.18.07h0l.39.85-.3-.88-.09,0,.39.85-.3-.88.26.75-.11-.79-.15,0,.26.75-.11-.79-1,.07c-2.39.13-6.47.05-8.8.11l-1.7,0h-2.2c-2.38,0-6.9.08-9.65.11a1.15,1.15,0,1,0,0,2.3c2.74,0,7.27-.07,9.66-.11h2.16c.35,0,.79,0,1.75,0,2.25,0,6.33,0,8.88-.11l1.09-.07.22,0,.27-.07.06,0-.25-.55.24.55h0l-.25-.55.24.55-.32-.73.23.77.09,0-.32-.73.23.77-.1-.34.08.34h0l-.1-.34.08.34s.51-.09,1.92-.23c3.71-.38,14.18-1.59,18.93-2.08a1.15,1.15,0,0,0-.24-2.29Z" style="fill:#fff"/><path d="M114.94,424.48a7.72,7.72,0,0,1-1.36,0c-4.39-.42-6.89-3-7.36-7.35a5.74,5.74,0,0,1,0-1.31c.38-2,1.12-3.41,3.58-3.51s6.5-.14,8.95-.08,3.2,1.44,3.58,3.45a5.75,5.75,0,0,1,0,1.31C121.83,421.37,119.32,423.94,114.94,424.48Z" style="fill:#fff"/><path d="M113.45,423.68h0c-3.86.05-6.08-2.86-6.52-6.43V417c.3-1.75,1.11-3,3.13-3.1s4.75-.11,6.77-.05,2.84,1.29,3.14,3v.26C119.51,420.71,117.31,423.63,113.45,423.68Z" style="fill:#aad6ec"/><g style="clip-path:url(#bae6d5ec-d40a-424b-ac81-9e3f4b37aee8)"><path d="M108.64,427.66l-3.4-2.12c3-4.89,6-9.79,9.05-14.66l3.38,2.09C114.64,417.85,111.61,422.74,108.64,427.66Z" style="fill:#fff"/></g><path d="M137.67,424.19a7.83,7.83,0,0,1-1.37,0c-4.36-.42-6.88-2.92-7.31-7.28a5.74,5.74,0,0,1,0-1.31c.4-2,1.16-3.38,3.62-3.48s6.5-.13,8.95-.08,3.17,1.4,3.53,3.4a5.58,5.58,0,0,1,0,1.29C144.57,421.09,142,423.66,137.67,424.19Z" style="fill:#fff"/><path d="M136.17,423.39h0c-3.84.05-6.06-2.8-6.46-6.36v-.26c.31-1.75,1.14-3,3.16-3.07s4.76-.12,6.77-.07,2.82,1.26,3.1,3v.26C142.25,420.45,140,423.35,136.17,423.39Z" style="fill:#aad6ec"/><g style="clip-path:url(#a7569da8-768b-4223-b4da-528c03de5c4d)"><path d="M131.34,427.35c-1.12-.7-2.25-1.39-3.38-2.08q4.55-7.32,9.17-14.56l3.36,2.07Q135.86,420,131.34,427.35Z" style="fill:#fff"/></g><path d="M130.44,435.53c-3.73,1.61-8,2.84-11.38-.17" style="fill:#e35e99"/><path d="M130.08,434.7a16,16,0,0,1-6.09,1.6,6.26,6.26,0,0,1-4.33-1.62.91.91,0,1,0-1.2,1.36A8.1,8.1,0,0,0,124,438.1a17.58,17.58,0,0,0,6.81-1.74.9.9,0,1,0-.72-1.66Z"/><g id="e6761acf-5169-41ee-adb2-1eb3a2605b99" data-name="Group 7186"><path id="fcb93e72-c298-459d-8761-0ced9c6e8782" data-name="Path 9607" d="M78.29,528.65l-1.24,20.16L89.6,633.57,88.12,644.5,89.6,659l3.62,4.57,5,2.12,5.37,2.82h2.26l4.8-2.82L107.54,660l-1.22-9,2,4.75L112,657.2l-4.7-16.6L102,626.5v-70l2-24Z" style="fill:#fdcbaa"/></g><g style="clip-path:url(#e4372554-9a9d-46e4-b796-730eab6e7418)"><path d="M198.86,449.81c13.9,10.24,26.61,32.38,30.15,46.67s3.61,21,.25,33.08c-11.78,5.9-23.28,12.42-35.09,18.31-4.24-11.56-8.65-23.06-13.56-34.38C186.89,492.37,192.38,470.64,198.86,449.81Z" style="fill:#5260ff"/><path d="M104.72,462.83c-16,3.55-28.87,19.6-31.5,33.14s-1.49,19.13-2.51,31.2c12.51,5.33,24.75,11.21,37.14,16.78,3.61-11.75,7.22-23.49,10.73-35.28C113.63,493.5,108.91,478,104.72,462.83Z" style="fill:#5260ff"/><path d="M201.43,465.61c-7.93,24.55-10.92,40.69-8.7,69.21.36,4.59.31-2.06,1.77,17.8s5,78.4,6.63,105.94c-34.63,4.09-69.57,3.79-104.31,6.35,5.56-41.06,14-110.81,6-126.56-2.59-13.34-3.63-34.87-2.74-46.41s.9-12.94,1.57-22.55c7.14-1.65,18.46-11.82,21.69-5.18,9.18,18.87,30.77,11.56,48.34-2.33,9.92,1.21,19.88,2.47,29.75,3.73" style="fill:#213b80"/><path d="M231.13,515.3c-13.38,8.34-26.92,16.41-40.57,24.33l.73,1.25.07-1.45-77.67-3.78-.07,1.45.63-1.3q-18.93-9.21-37.89-18.35l-1.26,2.61Q94,529.24,113,538.4l.26.13.3,0,77.67,3.78.43,0,.37-.21c13.66-7.93,27.23-16,40.65-24.38Z" style="fill:#213b80"/></g><g id="a3fdc3e9-6a35-4dae-9ea6-236ab8d82158" data-name="Group 7186"><path id="a2b78d36-8d3f-4d72-b5fc-98d249f0ae4a" data-name="Path 9607" d="M222.71,543.5l1.24,18L211.4,637.28l1.48,9.77-1.48,13-3.62,4.08-5,1.9-5.37,2.52h-2.26l-4.8-2.52,3.08-5.05,1.22-8-2,4.24L189,658.4l4.7-14.84L199,631V568.39l-2-21.45Z" style="fill:#fdcbaa"/></g><g style="clip-path:url(#a2bc2758-8750-4a09-8905-d4e18324b79a)"><line x1="616.79" y1="470.26" x2="636.16" y2="383.16" style="fill:#5b27a9"/></g><path d="M590.48,387.19l-3.75,21.43a4.27,4.27,0,0,1-8.52-.41l-1.69-21.66a7,7,0,0,1,14-1.13A8.08,8.08,0,0,1,590.48,387.19Z"/><rect x="582.95" y="379.32" width="10.24" height="8.24" rx="3.4" transform="translate(-107.56 288.87) rotate(-25.36)" style="fill:#423732"/><path d="M680.46,323.86c-.76-15-14.26-65.48-27.33-82-2.93-3.7-7-10.94-11.76-14.33-8.08-5.77-18.36-6.81-29.28-7.77L592.39,257c3.15,3.49,31.86,9.9,34.44,13.44,11.87,16.3,18.84,33.39,28.14,52.74-13.53,22.74-67.77,54.11-67.79,54.23-1,3.8.69,9.68,5.23,10.82,4.83-2.59,36.49-19.14,55.43-28.76C674,346.17,681.3,340.82,680.46,323.86Z" style="fill:#50239f"/><path d="M680.46,323.86c-.76-15-14.26-65.48-27.33-82-2.93-3.7-7-10.94-11.76-14.33-8.08-5.77-18.36-6.81-29.28-7.77L592.39,257c3.15,3.49,31.86,9.9,34.44,13.44,11.87,16.3,18.84,33.39,28.14,52.74-13.53,22.74-67.77,54.11-67.79,54.23-1,3.8.69,9.68,5.23,10.82,4.83-2.59,36.49-19.14,55.43-28.76C674,346.17,681.3,340.82,680.46,323.86Z" style="fill:#0c4968"/><g style="clip-path:url(#bf09a72d-8ce8-4133-ad39-345f8d7f71ff)"><path d="M655.55,214.59c-11.21-6.75-39.84-7.59-51-3.11-9.38,3.8-13.72,9.54-14.66,21.53-1.27,16.1,6.26,26,3.86,36.23-1.29,5.33,1.58,77,4.21,96.77,2.17,15.91,45.59-18.87,62.38-33.05a11.32,11.32,0,0,0,3-13.23c-6.87-15.52-20.26-50.69-6.37-64C669.4,244,655.55,214.59,655.55,214.59Z" style="fill:#0c4968"/></g><path d="M627.07,421.92c1.33-.54,2.67-1,4-1.41-1.38-4.38-2.83-9.25-3.61-12.37.52.35-15.51-32.86-5-72.85,11.87-42.55,7.22-71.91,7.1-71.39l-16.09-51.35c-17.13,2.61-32.88,23.08-32.4,34.46,1.29,24.73,24.66,61,16.51,94.31-7.08,32.44,20.35,74.1,19.91,73.5,2.63,2.76,5.31,5.34,8.07,7.72Z" style="fill:#50239f"/><path d="M627.07,421.92c1.33-.54,2.67-1,4-1.41-1.38-4.38-2.83-9.25-3.61-12.37.52.35-15.51-32.86-5-72.85,11.87-42.55,7.22-71.91,7.1-71.39l-16.09-51.35c-17.13,2.61-32.88,23.08-32.4,34.46,1.29,24.73,24.66,61,16.51,94.31-7.08,32.44,20.35,74.1,19.91,73.5,2.63,2.76,5.31,5.34,8.07,7.72Z" style="fill:#0c4968"/><g style="clip-path:url(#aab0049d-ab9e-4437-98d5-ac4e57356fb7)"><path d="M650,248c-7.81-10.49-47.33-24.6-59.38-24.67-10.13-.06-16.32,3.6-21.74,14.32-7.32,14.42-4,26.45-10.21,35-3.21,4.45-27.82,71.85-32.84,91.15-4.05,15.54,90.54,64.49,82.82,43.89-8.25-22.06-3.5-46.92-2.68-62.06.94-17,1.94-39.53,14.14-61.92C628.28,268.78,650,248,650,248Z" style="fill:#0c4968"/></g><path d="M548.37,209.49c-12.08-10.1-33.52-35.07-1.56-48.61,22-9.39,28-15.95,39.68-31.54s14.9-32.86,35.72-34.08,28.93,9.34,26.58,31.57S611.25,262.09,548.37,209.49Z" style="fill:#161616"/><g style="clip-path:url(#e064a189-3c9d-4635-9626-d62ce6c94fa9)"><path d="M570.66,220.08c-12.83-9.11-36.19-32.31-5.37-48.34,21.18-11,26.71-18.16,37-34.55s12.09-35.68,33-36.77c7.64-.42,14,5.45,13.4,27.79S637.47,267.59,570.66,220.08Z" style="fill:#232323"/></g><path d="M649.16,149.3c-9.88-6.05-42.68-10-53.88-5.54-9.47,3.78-13.72,9.54-14.67,21.51-1.26,16.12,6.26,26,3.88,36.23-1.3,5.35-6.4,36.92-3.72,56.68,2.42,17.78,67.36-10.11,80.45-15.92a1.84,1.84,0,0,0,.93-2.42,1.7,1.7,0,0,0-.29-.46c-6.55-7.54-29.69-36.38-14.06-51.4C660.14,176.26,649.16,149.3,649.16,149.3Z" style="fill:#5260ff"/><g style="clip-path:url(#e10c5096-bb1c-40f6-85b2-6e7cf1a67aaa)"><path d="M595.84,271.59a22.48,22.48,0,0,1-4.18.27c-3,0-6,0-8.94.12a4,4,0,0,1-.52-7.93c3.47-.08,4.55-.7,8-.75,5,0,13.75-2.83,18.29-4.68a.87.87,0,0,0,.61-1.05.64.64,0,0,0-.08-.19c-6.48-10.41-17.43-30-8.95-46,10.26-19.35.48-56.06.48-56.06-.75-4.37-3.34-7.35-6.18-7.55-13.17-1-35.18,13.45-44.48,16.66s-14.21,8.89-15.77,20.72c-2.12,16,5,26.3,2,36.38-1.55,5.27-8.31,36.54-6.65,56.4,1.19,14.06,42.56,1.9,66.62-6.42Z" style="fill:#5260ff"/></g><path d="M612.41,112c1.43-8.3,5.32-13.37,12.4-12.74s13.87,1.93,14.57,10.15-.46,8.52.06,10.36,1.69,1.32,1.53,1.7c-.26.63-1.84,1.16-1.84,1.16s.58,7.12-1.25,7.51c-3.28.66-9.17-.47-10.75,1.82s-2,5.18-.34,13.71-4.62,15.32-11,13.56c-2.74-.75-8.73-4.44-7.55-16.53C609.51,129.89,611.68,116.27,612.41,112Z" style="fill:#423732"/><path d="M638.48,101.31s3,6.76-12.34,18.76c-7.43,5.84-12.24,9-21,11.29-10.54,2.82-22.81,7-19.31-.13,5.56-11.23,14.46-26.56,23.24-30.77C623.33,93.63,635.77,93.34,638.48,101.31Z" style="fill:#232323"/><path d="M633.67,425l12.45,13.23a3.84,3.84,0,0,1-4.34,6.13L625.16,437a7.53,7.53,0,1,1,6.06-13.78A7.77,7.77,0,0,1,633.67,425Z"/><rect x="623.69" y="418.08" width="8.24" height="10.24" rx="3.4" transform="translate(-101.04 218.2) rotate(-18.27)" style="fill:#423732"/><path d="M617.58,414.88l3.33,5.23a12.38,12.38,0,0,0,11.79,1.24c-4.89-12-8.25-21.91-8.25-21.91Z" style="fill:#0c4968"/><path d="M679.41,224.82a1.45,1.45,0,0,0-1.53-1.36h0a61.42,61.42,0,0,1-9.1.23c-3.36-.36-9.88-4.21-16.23-2.46-6.8-1-37.09-8-52.73-10.86a20.48,20.48,0,0,0-9.15.07s6.26-23.11,7.35-31,6.28-30.64-4.41-31.85c-6.12-.7-10.17,5.72-12.47,10.43a83.74,83.74,0,0,0-6.83,24.87,217.61,217.61,0,0,0-2.35,22.35c-.71,17,5.3,26,22,25.18s56.81-1.09,63.25-1.84c4.31-.5,6.12,2.91,10.61,2C671.92,229.71,679.71,230.07,679.41,224.82Z" style="fill:#423732"/><path d="M650.48,226.32c3.49-3,5.28-9.32,5.84-18.59.37-7.08.49-14.22.36-21.37a117.94,117.94,0,0,0-2.35-24.59c-1.09-4.84-3.19-11.62-7.22-12.12-7-.86-5.58,21.42-5.54,29s2.17,30.42,2.17,30.42" style="fill:#423732"/></svg>