<svg id="e4447e15-b6c7-4b04-a442-209158cb5930" data-name="Layer 1" xmlns="http://www.w3.org/2000/svg" xmlns:xlink="http://www.w3.org/1999/xlink" width="1024" height="1024" viewBox="0 0 1024 1024"><defs><clipPath id="a154b062-e02c-4731-83fa-5d779d3ff0f8"><path d="M-689.1,390.3s-98.51,8.57-128.5,64.25c-22.51,41.81-5.16,127.54,4.88,167.66a53.23,53.23,0,0,0,24.2,32.64l46.86,28.24a43.39,43.39,0,0,0,8.87,4.07l143.11,3.12,43.7-34c14.6-7.3-.47-79.11-.47-79.11-3.23-38.75-10.22-88.43-23.3-125h0a24.77,24.77,0,0,0-5.3-8.67c-10.8-11.5-32.85-34-54.08-44.59C-654.83,386-689.1,390.3-689.1,390.3Z" style="fill:#5260ff;opacity:0.51"/></clipPath><clipPath id="acd84ad5-a67c-4bf2-b55e-7507bb560ce5"><path d="M-809.41,436c.3.16,44.52-10.74,51.78,44.26,4.87,36.86,16.78,81.55,26.76,106.81,10.08,25.53,34.29,55.57,34.29,55.57a4.75,4.75,0,0,1-2.69,7.55c-10.54,2.39-31.32,9.54-36.61,30.71-.64,2.56,1.91,5,1.28,5.76-13,16.65-100.13-39.34-100.13-39.34L-869,476Z" style="fill:#5260ff"/></clipPath></defs><path id="feb5bcf5-d3ad-44fe-9cbb-3ca2408b6a28" data-name="Path 1" d="M730.82,712.27c-40.43,24-82.69,42.38-124.61,61.7-19.21,8.88-38.58,15.55-54.28,31.59-14.68,15.06-23.87,37-39.37,51.11-12,11-26.61,16.67-41.21,20.4-62.63,15.54-127.59-2.63-179-50.08-46.26-43.21-78.12-109.62-87.47-180.89-5.67-43.21-.51-87.8-7.67-130.77-7.55-45.42-30.84-78.24-50.13-116.5a382.63,382.63,0,0,1-30.8-86.13c-4-17.46-6.85-35.9-4.31-53.81,7-48.61,49.63-74.66,88.14-85.2a294.7,294.7,0,0,1,146.24-2.45c37.81,9.12,78,28.45,117,22.22,44.07-7.07,66.89-55.77,100-87.26C637.91,35.37,758,65.83,819.85,146.27c76.35,99.33,121.24,294.4,58.38,416.83-34.24,66.71-88.48,113.8-145.62,148A18.52,18.52,0,0,1,730.82,712.27Z" style="fill:#f3fbff"/><path id="e4256acf-4d2c-4203-bb93-2ceb717b4c88" data-name="Path 9622" d="M544.85,219.82H650.08c5.47,0,9.91,6.64,9.92,14.82v73.78c0,8.18-4.45,14.8-9.92,14.82H573l-18.65,24.58-.23-24.58h-9.25c-5.48,0-9.91-6.64-9.93-14.82V234.64C534.94,226.46,539.37,219.84,544.85,219.82Z" style="fill:#5260ff"/><path d="M-570.35,670.74c14.86-7.43,4.48-108.13,4.48-108.13-3.23-38.75,9.2-73.86-3.88-110.48h0a24.81,24.81,0,0,0-5.29-8.65c-10.19-10.85-30.39-31.47-50.46-42.69l.24-7.64-.15.57.58-11.66a8.53,8.53,0,0,0,3-6.5,8.49,8.49,0,0,0-2.39-5.92l1.54-30.74-1.31,30,8.18-24a10.51,10.51,0,0,0-2.67-10.31l-4.2-4.2s12.85-25.7-8.57-30-38.55,12.85-38.55,12.85-8.57,4.28-21.42,0c0,0-21.41-8.57-25.7,17.13-2.83,17-1.91,28.41-1,34.15-.24,0-.49,0-.74,0a8.57,8.57,0,0,0-8.15,11.18,8.31,8.31,0,0,0,5.33,5.46,8.75,8.75,0,0,0,4.53.29v.35s-.55,5.5-1.05,13.33c-31.52,6.95-80.11,23.23-99.64,59.49-22.51,41.81-5.16,127.54,4.88,167.66a53.23,53.23,0,0,0,24.2,32.64l46.86,28.24a43.39,43.39,0,0,0,8.87,4.07l2.29-4.17,80.12,7.29Z" style="fill:#341061"/><path d="M-689.1,390.3s-98.51,8.57-128.5,64.25c-22.51,41.81-5.16,127.54,4.88,167.66a53.23,53.23,0,0,0,24.2,32.64l46.86,28.24a43.39,43.39,0,0,0,8.87,4.07l143.11,3.12,43.7-34c14.6-7.3-.47-79.11-.47-79.11-3.23-38.75-10.22-88.43-23.3-125h0a24.77,24.77,0,0,0-5.3-8.67c-10.8-11.5-32.85-34-54.08-44.59C-654.83,386-689.1,390.3-689.1,390.3Z" style="fill:#5260ff;opacity:0.51"/><g style="clip-path:url(#a154b062-e02c-4731-83fa-5d779d3ff0f8)"><path d="M-809.41,436c.3.16,44.52-10.74,51.78,44.26,4.87,36.86,16.78,81.55,26.76,106.81,10.08,25.53,34.29,55.57,34.29,55.57a4.75,4.75,0,0,1-2.69,7.55c-10.54,2.39-31.32,9.54-36.61,30.71-.64,2.56,1.91,5,1.28,5.76-13,16.65-100.13-39.34-100.13-39.34L-869,476Z" style="fill:#5260ff"/><g style="clip-path:url(#acd84ad5-a67c-4bf2-b55e-7507bb560ce5)"><path d="M614.91,743.09s-4.28-30,21.42-47.12,35.88-6.41,35.88-6.41" style="fill:none;stroke:#5260ff;stroke-miterlimit:10;stroke-width:9.06280966566033px"/></g></g><path id="a1273d14-c58d-44f8-9c1f-a7d5442d5042" data-name="Path 9622" d="M446.85,177.82H552.08c5.47,0,9.91,6.64,9.92,14.82v73.78c0,8.18-4.45,14.8-9.92,14.82H475l-18.65,24.58-.23-24.58h-9.25c-5.48,0-9.91-6.64-9.93-14.82V192.64C436.94,184.46,441.37,177.84,446.85,177.82Z" style="fill:#5260ff;stroke:#fff;stroke-miterlimit:10"/><path d="M581,487.14c0-3.2-.15-6.36-.43-9.48" style="fill:none;stroke:#5260ff;stroke-miterlimit:10;stroke-width:1.2985232233343478px"/><path d="M577.08,459.3a101.3,101.3,0,1,0,2.15,46.55" style="fill:none;stroke:#5260ff;stroke-miterlimit:10;stroke-width:1.2985232233343478px;stroke-dasharray:18.710649490356445,18.710649490356445"/><path d="M580.52,496.61c.28-3.12.43-6.28.43-9.47" style="fill:none;stroke:#5260ff;stroke-miterlimit:10;stroke-width:1.2985232233343478px"/><path d="M549.07,487.42a68.37,68.37,0,0,0-.66-9.45" style="fill:none;stroke:#5260ff;stroke-miterlimit:10;stroke-width:0.8591017967615372px"/><path d="M543.06,459.64a67,67,0,1,0,3.34,46.58" style="fill:none;stroke:#5260ff;stroke-miterlimit:10;stroke-width:0.8591017967615372px;stroke-dasharray:19.1456241607666,19.1456241607666"/><path d="M548.41,496.87a68.48,68.48,0,0,0,.66-9.45" style="fill:none;stroke:#5260ff;stroke-miterlimit:10;stroke-width:0.8591017967615372px"/><g id="a0a93536-780b-4807-81df-01aa64ebeb3e" data-name="Group 7133"><path id="b461d954-4db3-4da4-9bae-73c2a98f7b09" data-name="Path 9560" d="M399.9,888.75l-12-2.27,1.1-45.75,18.87,7.4-7.66,29,18.56,5.19Z" style="fill:#fdcbaa"/></g><g id="af7bf624-5a88-42ec-a6aa-5e5f07f07445" data-name="Group 7134"><path id="b6352d47-33fe-4d3f-8122-72a0ff7e20b8" data-name="Path 9561" d="M322.72,846l6.54,5.94,3.88,6.36-25.33-7.15-.93-4.54,16.88-23.34,29-.45Z" style="fill:#fdcbaa"/></g><g id="fdc7d6f0-57a7-47ca-8ec8-7460ab42d274" data-name="Group 7135"><path id="a2589269-08c2-4514-a58f-c0cb9d4a52dd" data-name="Path 9562" d="M394.4,306.45a29.54,29.54,0,0,0-31.73,23.44c-2.27,11.45-1.41,28.22,7,52.63l38.74-13.1L434.72,339S433,309.68,394.4,306.45Z" style="fill:#4d5068"/></g><g id="bd1acc9a-52ee-4f84-9013-44c7ae8edb21" data-name="Group 7136"><rect id="f45263e2-7465-4508-8017-c71c7f6e409c" data-name="Rectangle 3669" x="347.68" y="374.84" width="70.61" height="30.32" transform="translate(-157.45 471.91) rotate(-54.14)" style="fill:#fdcbaa"/></g><g id="a2b44d40-4104-458a-8194-f187c3ed57fe" data-name="Group 7137" style="opacity:0.200000002980232"><path id="e1b329a0-b41f-4d7f-9220-7e0634ac2685" data-name="Path 9563" d="M398.14,394.93l-29.87-10.42,23.1-32L416,370.28Z" style="fill:#494949"/></g><g id="fb147482-42d2-4f45-b87e-1805be7b3fe2" data-name="Group 7138"><path id="bc4b5e8a-1ed4-4d1d-86b1-ec97cd1cfdb1" data-name="Path 9564" d="M434.68,339s5,15.64,1.24,24.06l-4.05,5s-.66,10.14,1.58,13.68a.3.3,0,0,1-.07.45c-.89.75-4.19,3.33-7.15,1.16l-9.38,15.3a7.1,7.1,0,0,1-9.78,2.33,5.39,5.39,0,0,1-.5-.33L391.37,390a16.69,16.69,0,0,1-4.26-22.21l2.54-4.12s-2.71,1.75-2.54-8.29c.07-4,1.24-9.35,4.88-11,1.37-.59,7.11.34,7.66,1.14,1.17,1.65,1.31,8.56,1.28,11.89a.36.36,0,0,0,.34.38.37.37,0,0,0,.34-.21C404.54,351.27,416,329.89,434.68,339Z" style="fill:#fdcbaa"/></g><g id="b6d30459-235c-452d-8e6b-969e50dd8aa0" data-name="Group 7139"><path id="b7bf3a9a-fdbd-45d0-8baf-f337a204733b" data-name="Path 9565" d="M359,348.11c-.55-9.25.11-18.7,3.44-27.43l-.65-1.34c-2-5.95-4.57-12.17-9.83-15.51a14.89,14.89,0,0,0-20.55,4.56,14.6,14.6,0,0,0-1.18,2.25c-1.54,3.68-1.54,7.77-1.27,11.76a90,90,0,0,0,9.1,33.65c3.48,7,7.84,13.54,10.08,21,1.58,5.3,2.47,13.17-1.35,17.7a34.44,34.44,0,0,0,6.4-9.72,10.51,10.51,0,0,0,2.27,7.87c.2-5.16,4.74-9.08,6.32-14a20.59,20.59,0,0,0,.76-6.29C362.46,364.23,359.47,356.53,359,348.11Z" style="fill:#4d5068"/></g><g id="f51dbf03-53f9-4d3c-afb6-2a4adb9fffd8" data-name="Group 7140"><path id="fa81c9b2-754e-44c4-95e6-1f6857016f59" data-name="Path 9566" d="M434.1,336.77a2.82,2.82,0,0,0-.83-1.1c-.24-.24-.41-.55-.65-.79a10.39,10.39,0,0,0-2.54-1.76,19.23,19.23,0,0,0-5.88-1.68l-.24,0c-8-1.1-17.46-.42-23.82,5-7.05,6.05-15.33,9.53-23.65,13.62a18.7,18.7,0,0,0-6.32,4.29c-2.34,2.82-2.69,6.78-2.58,10.45a52.07,52.07,0,0,0,1.64,11.31,22.64,22.64,0,0,1,.79,4.47c0,.72-1,1.45-.69,2.24,1.62,4,9.39-.69,11.21-2.34a22,22,0,0,0,6.19-9.28c.89-2.82,4.57-4.34,4.12-7.67a11.08,11.08,0,0,0-1.61-3.57,10.92,10.92,0,0,1,0-10,8.43,8.43,0,0,1,4.37-4,6,6,0,0,1,5.74.79,4.87,4.87,0,0,1,1.48,5,53.22,53.22,0,0,0-.83,6.53,4.61,4.61,0,0,0,.72,3.23,9,9,0,0,0,4.23-4.4,26.73,26.73,0,0,1,3.2-5.33,13.23,13.23,0,0,1,7.29-3.47c1.48-.24,3.19.17,4.6-.13s2.65-1.45,3.89-2a60.27,60.27,0,0,1,6-2.2,31.93,31.93,0,0,0,3-1.17c.45-.2,1.86-.65,2-1.13a5,5,0,0,0,.14-1.28c0-.38-.24-.75-.34-1.2s-.18-.38-.18-.62A6.48,6.48,0,0,0,434.1,336.77Z" style="fill:#4d5068"/></g><g id="f8b5d776-fb1b-4d5e-ab3c-c8fa0e55c1ef" data-name="Group 7141"><path id="a5c83758-bb5e-4d95-937e-ccc926dc9912" data-name="Path 9567" d="M397.32,720.63l-80.54,112.3,17.08,4.54L414.2,775Z" style="fill:#0b3c4f"/></g><g id="a9244939-7ad3-46d1-aac6-9a715da5e6bf" data-name="Group 7142" style="opacity:0.300000011920929"><path id="b880672a-e091-4276-8439-a728596d5690" data-name="Path 9568" d="M385.35,741.29l-2.61,60.5L414.19,775l-16.87-54.41-12.55,15.92Z" style="fill:#191c3c"/></g><g id="ac0bb5d0-2c92-4b1d-ac71-8fef4b67532f" data-name="Group 7143"><path id="be499037-f113-4656-9b76-325b1f1fa079" data-name="Path 9569" d="M437.09,579.83v149.7L407.91,848.09l-19.39,4.16,2.48-111-11.49-90.54L364.7,624.38a37.67,37.67,0,0,1-4.51-23.55l1.52-11.1Z" style="fill:#0c4968"/></g><g id="accc6c81-311f-4cb8-8b88-6f5b8b42766d" data-name="Group 7144"><path id="a8940760-22e3-4382-a787-6a3cec9de6c0" data-name="Path 9570" d="M471.74,495.1l.24-1.24,7.87-3.78L474.21,482a2,2,0,0,0-1.27-1.85l-8.45-3.27a3.18,3.18,0,0,0-2.89.28L449.36,485H438.19l-9.48,4.43v14.54h19.86S460,510.19,464,509.71c1.68-.21,5.64-3.75,5.64-3.75l3.4.58a4.22,4.22,0,0,0,4.37-2l1.3-2.2,3.58-.1a3.07,3.07,0,0,0,2.92-2.58l.38-2.51s2.95-.93,3.5-1.72c.69-1,.55-4.85.55-4.85l-5.46,2.34-21.42,11.9-4.3-2.34Z" style="fill:#fdcbaa"/></g><g id="ae1640ef-4c8c-4090-9279-8673bc8131f1" data-name="Group 7145" style="opacity:0.200000002980232"><path id="a8e4b17d-179e-4758-9b1c-e88d6aa579bf" data-name="Path 9571" d="M441.08,496.88,443.86,485h-5.64l-9.48,4.4v14.54h12.92Z" style="fill:#1d1d1b"/></g><g id="e4a18906-f41e-409e-8dee-1d80ee3b8b2f" data-name="Group 7146" style="opacity:0.300000011920929"><path id="ae7caa6b-e578-451d-890a-44538fe98557" data-name="Path 9572" d="M437.09,579.83l-75.42,9.93-1.52,11.11a37.62,37.62,0,0,0,1.45,16.36c14-7.91,49.5-26.88,75.48-31.76Z" style="fill:#191c3c"/></g><g id="fab4eb32-ffa3-453f-af31-8b342630c77f" data-name="Group 7147"><path id="e2bbbb99-065a-442c-b611-ae7107b669bf" data-name="Path 9573" d="M351.77,407.27,339.6,419,355.55,615.1s53.94-32.28,86.76-36.09l-6.87-82.13,3.16-13.71a35,35,0,0,0-7.87-25.58l-41.52-50.32h0a15.26,15.26,0,0,1-16.47,5.78Z" style="fill:#5260ff"/></g><g id="b38c9a0e-f878-4e9c-aad3-728eb02e7e05" data-name="Group 7149"><g id="b7ca0185-f02f-4160-a3c5-a34a6803ac61" data-name="Group 7148" style="opacity:0.300000011920929"><path id="b2c2e339-ded4-479c-9cf2-5f067fd150d5" data-name="Path 9574" d="M362.15,419l-10.34-11.76L339.64,419,355.59,615.1s8.83-5.3,21.55-11.86Z" style="fill:#5260ff"/></g></g><path id="b85189ff-3e5c-401e-b11e-e93cf689e387" data-name="Path 9575" d="M509.55,480.56,461.46,506a2.31,2.31,0,0,1-3.13-1l-.52-1a2.37,2.37,0,0,1,1-3.16l48.09-25.4" style="fill:#191c3c"/><g id="abc155ab-55ae-4592-8fca-e545521c1bdc" data-name="Group 7151"><path id="a893792e-6a57-456d-b639-afa713e544d1" data-name="Path 9576" d="M398.18,621.9l6.46,6.5a4.47,4.47,0,0,1,1.24,2.27c1.06,4.91,4.33,21.86-.31,23.79-1.28.51-3.89-3.82-3.89-3.82s-1.75,4.85-3.19,4.85-3.3-4.75-3.3-4.75-1.34,4.61-2.69,4.75c-1.58.17-4.12-4.75-4.12-4.75s-2.58,4.54-4,4.23c-1.82-.38-2.47-7-2.47-7l-3.16-13.51a6.71,6.71,0,0,1,1.1-5.54l3.47-4.91-2.41-12.86,15.37-2.23Z" style="fill:#fdcbaa"/></g><g id="b32c200b-bbf8-41e0-b12d-cc58ce7f0c52" data-name="Group 7152" style="opacity:0.200000002980232"><path id="e5f1ec5e-5f1e-4aad-9c86-70cc9129d50c" data-name="Path 9577" d="M396.25,608.88l-15.36,2.23,2,10.55h15.26Z" style="fill:#191c3c"/></g><g id="b06f2c3a-45e7-4981-9c94-34c002e537fe" data-name="Group 7153" style="opacity:0.200000002980232"><path id="fdb3ea61-953e-4a33-862f-efe133149bfe" data-name="Path 9578" d="M435.47,496.88l.52-2.26h0c-5.71-.07-8.36,2.75-17.12.58-3-.72-3.71,1.1-.76,1.48,3.88.48,8.18,5,11.86,5.64a2.1,2.1,0,0,0,1.61,2.16,12.07,12.07,0,0,0,1.59.31,6.78,6.78,0,0,0-.76,2.3c0,1.31.76,2,1.14,3.13.48,1.55.37,3,1.27,4.47a27.88,27.88,0,0,0,2.54,3.64Z" style="fill:#1d1d1b"/></g><g id="afcab733-5853-4d52-a5fd-b60d4e296e6f" data-name="Group 7154"><path id="e859b1e3-d3a9-4958-8c92-5342de868ff0" data-name="Path 9579" d="M360.09,331.75l-.62-.24a3.71,3.71,0,0,1-2.23-4.68l3.64-10.24a3.71,3.71,0,0,1,4.68-2.23l.62.24a3.7,3.7,0,0,1,2.23,4.67l-3.68,10.24a3.6,3.6,0,0,1-4.56,2.27Z" style="fill:#191c3c"/></g><g id="a4d463c5-8c9f-4be4-978b-60fdbdd8640a" data-name="Group 7155"><path id="aeb8a048-9e3c-47e1-81f2-6531be12fb07" data-name="Path 9580" d="M351.77,407.27,339.63,419,350,520.67l27.61,97.25H401.1L375.28,516.13l-.69-88.61Z" style="fill:#5260ff"/></g><g id="be073b71-0883-4d98-a139-a1d86ba60db1" data-name="Group 7156" style="opacity:0.200000002980232"><path id="b9346c63-75b3-4e73-aed0-56447ee35ca8" data-name="Path 9581" d="M374.87,519.12a2.33,2.33,0,0,0,.1-1.2,8.87,8.87,0,0,0,2.2-2.92c2.79-5.4-.24-18.7-.24-24.65,0-7.39-.92-14.74-1.13-22.13-.11-3.75.44-7.43.48-11.14,0-3-1.86-5.26-2.24-8.11-1.3,3.71-.48,7.35-.55,11.17-.06,5.39-.17,10.82-.24,16.22a123.37,123.37,0,0,1-.89,15.61,29.56,29.56,0,0,0-.69,6.22,70.44,70.44,0,0,1-1,12.79c-.72,3.33-3.26,4-6,5.88a8,8,0,0,1,3-.49.57.57,0,0,1,.38.14c.11.14,0,.35-.1.48a32.48,32.48,0,0,1-3,4.16l7.94,1.45c-1.14.17-2.31.31-3.44.48,1.07.86,2.13,1.72,3.2,2.54a11.74,11.74,0,0,1,2.85,2.82,13.34,13.34,0,0,1,1.31,2.75,98.33,98.33,0,0,1,4.29,16.26c.52,2.72,1.24,5.53,1.52,8.28.11.9-.17,1.86,0,2.75a10.24,10.24,0,0,0,1.85,3.34,22.88,22.88,0,0,1,2.51,6.84c.76,3,1.55,6.05,2.31,9.07,1-2.92-.52-6-1-9a23.68,23.68,0,0,1-.2-3.47A145,145,0,0,0,385,540.4c-1.35-7-3.17-15.81-9-20.52C375.59,519.64,375.25,519.37,374.87,519.12Z" style="fill:#1d1d1b;opacity:0.300000011920929;isolation:isolate"/></g><path id="a7d76e08-9338-43c2-aaed-26fe2b6a45ae" data-name="Path 9582" d="M400.24,877.1s34.3,4.81,32.41,11.55S388,892,388,892l0-8.35S433.31,888.31,400.24,877.1Z" style="fill:#22343d"/><path id="b005adab-43f1-4a29-b106-82f05da1c268" data-name="Path 9612" d="M322.72,846s28.23,18.66,23.59,23.89-43.69-16.12-43.69-16.12l4.26-7.15S347.65,870.4,322.72,846Z" style="fill:#22343d"/><path d="M624.93,280.56c-2.41-2.58-6.9-6.46-6.9-19.19a19.65,19.65,0,0,0-15.92-19.31v-2.6a4,4,0,0,0-8,0v2.6a19.64,19.64,0,0,0-15.92,19.31c0,12.73-4.5,16.61-6.91,19.19a3.93,3.93,0,0,0-1.07,2.71,4,4,0,0,0,4,4H622a4,4,0,0,0,4-4,3.89,3.89,0,0,0-1.07-2.71Zm-46.28.72c2.64-3.49,5.53-9.25,5.55-19.84,0,0,0-.05,0-.07a13.94,13.94,0,1,1,27.87,0v.07c0,10.59,2.9,16.36,5.54,19.84Zm19.48,17.91a8,8,0,0,0,8-8H590.17A8,8,0,0,0,598.13,299.19Z" style="fill:#fff"/><path d="M502,227.75,514.32,214l-19.47-20.9v27.52l-11.49-11.48-4.19,4.18,14.42,14.46-14.42,14.46,4.19,4.19,11.49-11.49.36,26.45L515,241.53ZM507.41,214l-6.66,6.67-.05-13.38Zm-6.66,20.81,6.66,6.67-6.71,6.71Z" style="fill:#fff"/><path id="bdbbf739-b540-4eb7-bcad-a378cfec9d0c" data-name="Path 3" d="M394.48,47.33c-2.52-.91-5.05-2-7.69-1.81-2.84.15-5.79-.45-8.53.69a19.7,19.7,0,0,0-6,3.46c-1.34,1.09-2.54,2.5-4.08,3.14-2.93-.15-5.87,0-8.8.09a20,20,0,0,0-7.21,3.31c-2.09,1.33-3.22,4-4.45,6.35a19.9,19.9,0,0,0-1.8,7.26c-4.37,0-9,.06-12.86,3-1.63,1.39-3.63,2.32-4.78,4.43-1.71,2.92-3.2,6.36-2.86,10.12,1.06.06,2.14.15,3.2.15,35.71-.09,71.43.09,107.12-.09-.17-2.8-.43-5.75-1.68-8.16-1-2-1.92-4.19-3.6-5.36a18.28,18.28,0,0,0-9.64-4.49c-3.8-.84-7.64-.21-11.49-.6,0-3.34-1.15-6.38-2.21-9.36A12.81,12.81,0,0,0,405,55.91a22.72,22.72,0,0,0-4.5-4.76C398.52,49.82,396.67,48.11,394.48,47.33Z" style="fill:#c7ecff;opacity:0.300000011920929;isolation:isolate"/><path id="fba82c18-2982-4578-a88f-37489e87a234" data-name="Path 3" d="M212,71.87c-3.06-1.09-6.11-2.44-9.31-2.19-3.44.19-7-.54-10.33.84a23.67,23.67,0,0,0-7.22,4.19c-1.63,1.32-3.08,3-4.94,3.8-3.55-.19-7.1,0-10.65.11a24.32,24.32,0,0,0-8.73,4c-2.53,1.6-3.9,4.84-5.38,7.69a23.7,23.7,0,0,0-2.18,8.78c-5.3,0-10.92.07-15.57,3.61-2,1.68-4.39,2.8-5.79,5.36-2.06,3.54-3.87,7.69-3.46,12.25,1.28.07,2.59.18,3.87.18,43.23-.11,86.46.11,129.67-.11-.2-3.39-.52-7-2-9.88-1.25-2.37-2.33-5.06-4.37-6.48a22.13,22.13,0,0,0-11.66-5.44c-4.6-1-9.25-.25-13.91-.72,0-4.05-1.39-7.73-2.68-11.34a15.54,15.54,0,0,0-2.62-4.26,27.25,27.25,0,0,0-5.44-5.77C216.91,74.9,214.67,72.82,212,71.87Z" style="fill:#c7ecff;opacity:0.300000011920929;isolation:isolate"/></svg>