<svg xmlns="http://www.w3.org/2000/svg" xmlns:xlink="http://www.w3.org/1999/xlink" width="1024" height="1024" viewBox="0 0 1024 1024"><defs><clipPath id="fb09a040-5f4e-45cf-bf5a-f18acb68c1af"><path d="M549.51,658s125.76-44.68,147-43.35,25.49,7.95,33.54,17.69S748.8,687.27,644,729.79C564,743.21,433,747.05,433,747.05h0l0-.08a61.47,61.47,0,0,1-7.44-30.11l.45-34.39Z"/></clipPath><clipPath id="aeefae6b-14b5-4359-8ddf-4dd0d2129b27"><path d="M340,598.82a37.2,37.2,0,0,0-25,.77c-8.16,3.25-17.27,9.14-21.07,19.71-7.59,21.12-9.69,36.65,21.47,51.92,28,13.71,232.74,78.09,261,88.28a6,6,0,0,0,7.35-3l23.21-64.46c1.6-3.26-4.1-13.78-7.56-14.88Z" style="fill:#5260ff"/></clipPath><clipPath id="aa849ad3-3d1c-43f3-98bb-103278a191a5"><path d="M605.51,635.23C620.37,627.8,610,527.1,610,527.1c-3.22-38.75,9.21-73.86-3.87-110.48h0a24.81,24.81,0,0,0-5.29-8.65c-10.19-10.85-30.39-31.47-50.47-42.69l.25-7.64-.16.57.59-11.66a8.52,8.52,0,0,0,.62-12.42l1.53-30.74-1.3,29.95,8.17-24A10.49,10.49,0,0,0,557.39,299l-4.2-4.2s12.86-25.7-8.56-30-38.55,12.85-38.55,12.85-8.57,4.28-21.42,0c0,0-21.42-8.57-25.7,17.13-2.84,17-1.92,28.41-1,34.15-.24,0-.49,0-.74,0a8.57,8.57,0,0,0-8.16,11.18,8.32,8.32,0,0,0,5.34,5.46,8.75,8.75,0,0,0,4.53.29v.35s-.55,5.5-1.06,13.33c-31.52,6.95-80.11,23.23-99.63,59.49-22.52,41.82-5.16,127.54,4.88,167.66a53.25,53.25,0,0,0,24.19,32.64l46.87,28.25a43.81,43.81,0,0,0,8.86,4.06l2.3-4.17,80.12,7.29Z" style="fill:#341061"/></clipPath><clipPath id="bbb20006-5f8c-4f38-80f5-e01376562e01"><path d="M486.77,354.79s-98.52,8.57-128.5,64.25c-22.52,41.82-5.16,127.54,4.88,167.66a53.25,53.25,0,0,0,24.19,32.64l46.87,28.24a43.31,43.31,0,0,0,8.86,4.07l143.11,3.12,43.7-34c14.6-7.3-.46-79.11-.46-79.11-3.23-38.75-10.22-88.43-23.3-125h0a24.92,24.92,0,0,0-5.3-8.67C590,396.45,568,374,546.74,363.36,521,350.51,486.77,354.79,486.77,354.79Z" style="fill:#5260ff;opacity:0.51"/></clipPath><clipPath id="bb7951d6-7698-4db3-908f-078b895182a6"><path d="M599.84,387.69l-.11,49.7a125.35,125.35,0,0,1-1.05,16L572.44,654.63,641,710.31s42.84-167,42.84-175.62,8.75-138.05,8.75-138.05Z" style="fill:#5260ff"/></clipPath><clipPath id="f45cda7d-62b8-454a-b6e0-7fd91391d70a"><path d="M366.45,400.48c.3.16,44.52-10.74,51.79,44.26C423.1,481.6,435,526.29,445,551.55c10.08,25.53,34.29,55.57,34.29,55.57a4.75,4.75,0,0,1-2.69,7.55c-10.55,2.39-31.32,9.54-36.61,30.71-.64,2.56,1.9,5,1.28,5.76-13,16.65-100.14-39.34-100.14-39.34L306.87,440.46Z" style="fill:#5260ff"/></clipPath><clipPath id="ef8d5966-e1ba-4520-ab00-e9efab2ecaec"><path d="M580.4,666l-40.62,0c-3.52,0-6-2.65-5.47-5.93l13.07-85.48a7.44,7.44,0,0,1,7.28-5.94l40.62,0c3.52,0,6,2.66,5.47,5.94l-13.07,85.48A7.44,7.44,0,0,1,580.4,666Z" style="fill:#1d2322"/></clipPath></defs><g style="isolation:isolate"><g id="bdcabdf3-d890-4033-8b38-87376cac3b1e" data-name="Layer 1"><path id="fb6f3b59-25e6-40bb-9188-5e798f06661e" data-name="Path 1" d="M773.06,758.11c-45,23.07-92.13,40.77-138.83,59.35-21.41,8.54-43,15-60.48,30.39-16.36,14.49-26.6,35.58-43.86,49.17-13.43,10.56-29.65,16-45.91,19.62-69.78,15-142.16-2.53-199.44-48.17-51.54-41.57-87-105.45-97.45-174-6.32-41.57-.57-84.46-8.55-125.79-8.41-43.69-34.35-75.26-55.85-112.07a336.53,336.53,0,0,1-34.31-82.85c-4.45-16.8-7.64-34.54-4.8-51.76,7.76-46.76,55.29-71.82,98.19-82a378.84,378.84,0,0,1,162.94-2.36C386.83,246.45,431.56,265,475.08,259c49.09-6.79,74.51-53.64,111.44-83.94,83-68.13,216.82-38.83,285.72,38.55,85.07,95.55,135.08,283.2,65.06,401C899.15,678.79,838.71,724.09,775.05,757A19.65,19.65,0,0,1,773.06,758.11Z" style="fill:#f3fbff"/><path d="M291.46,634.83s-19.64,29.73,75,81.45c81.25,44.4,143.09,9.53,143.09,9.53l37.07-43.5Z" style="fill:#213b80"/><path d="M453.34,704.73a10.45,10.45,0,0,0-9.41-9.23c-12.3-1.16-35.12,0-54.62,3.5-21.21,3.74-57.6,8.44-68.13,15.91-2.7,1.91-.5,17.84,2.52,19.18,5.4,2.41,90.48,14.11,90.48,14.11l42.07-26.77Z"/><path d="M407.58,724.46,409,720.9a17.21,17.21,0,0,1,10.94-10l30.08-9.14A17.24,17.24,0,0,1,472.3,718.3v9.31a17.24,17.24,0,0,1-15.4,17.12l-31.51,3.39A17.24,17.24,0,0,1,407.58,724.46Z" style="fill:#fff"/><path d="M549.51,658s125.76-44.68,147-43.35,25.49,7.95,33.54,17.69S748.8,687.27,644,729.79C564,743.21,433,747.05,433,747.05h0l0-.08a61.47,61.47,0,0,1-7.44-30.11l.45-34.39Z"/><g style="clip-path:url(#fb09a040-5f4e-45cf-bf5a-f18acb68c1af)"><path d="M688.72,607.08s-44.94-3.31-95.25,18.55-170.92,88.54-170.92,88.54l2.09,46.31,233.58-32,72.71-42.22c14.47-13,21.18-77.11,2.27-81.63Z" style="fill:#213b80"/></g><polygon points="659.72 715.25 623.68 738.66 553.19 724.6 579.18 682.62 659.72 715.25" style="fill:#fff"/><path d="M728.37,728.83c-4.89-2.74-80.16-24.12-88.13-26v0c-9.17-2.56-17-4.92-21.85-6.75a24.92,24.92,0,0,1-29.32,33.59c.74.71,15,18.94,17.31,20.92,0,0,0,.08,0,.13l.52.09.38.07c12.53,2.22,110.73,3.69,121.9-2.78C732,746.51,731.25,730.45,728.37,728.83Z"/><path d="M340,598.82a37.2,37.2,0,0,0-25,.77c-8.16,3.25-17.27,9.14-21.07,19.71-7.59,21.12-9.69,36.65,21.47,51.92,28,13.71,232.74,78.09,261,88.28a6,6,0,0,0,7.35-3l23.21-64.46c1.6-3.26-4.1-13.78-7.56-14.88Z" style="fill:#5260ff"/><g style="clip-path:url(#aeefae6b-14b5-4359-8ddf-4dd0d2129b27)"><path d="M358.27,436.31c-22.51,41.79-5.18,127.47,4.87,167.61,2.45,9.81,7.29,18.86,14.83,25.52,38.36,33.85,112.33,60.23,160,64.17q9.48.78,19,.88c4.18,0,8.48,0,12.36-1.6,8.29-3.31,10-14.46,13.35-21.79l5.69-12.29Z" style="fill:#5260ff;opacity:0.51;mix-blend-mode:multiply"/></g><path d="M605.51,635.23C620.37,627.8,610,527.1,610,527.1c-3.22-38.75,9.21-73.86-3.87-110.48h0a24.81,24.81,0,0,0-5.29-8.65c-10.19-10.85-30.39-31.47-50.47-42.69l.25-7.64-.16.57.59-11.66a8.52,8.52,0,0,0,.62-12.42l1.53-30.74-1.3,29.95,8.17-24A10.49,10.49,0,0,0,557.39,299l-4.2-4.2s12.86-25.7-8.56-30-38.55,12.85-38.55,12.85-8.57,4.28-21.42,0c0,0-21.42-8.57-25.7,17.13-2.84,17-1.92,28.41-1,34.15-.24,0-.49,0-.74,0a8.57,8.57,0,0,0-8.16,11.18,8.32,8.32,0,0,0,5.34,5.46,8.75,8.75,0,0,0,4.53.29v.35s-.55,5.5-1.06,13.33c-31.52,6.95-80.11,23.23-99.63,59.49-22.52,41.82-5.16,127.54,4.88,167.66a53.25,53.25,0,0,0,24.19,32.64l46.87,28.25a43.81,43.81,0,0,0,8.86,4.06l2.3-4.17,80.12,7.29Z" style="fill:#341061"/><g style="clip-path:url(#aa849ad3-3d1c-43f3-98bb-103278a191a5)"><path d="M301.5,589.88c-19.36,82.28,10.91,153.55,71.35,188.43C398.1,792.9,428.64,801.1,463,801.1c31.29,0,62.59-6.8,92.15-19C635.92,748.79,703.87,675.25,724,589.88c27.46-116.67-44.86-211.23-161.52-211.23S329,473.21,301.5,589.88Z" style="fill:#341061;opacity:0.43;mix-blend-mode:multiply"/></g><path d="M486.77,354.79s-98.52,8.57-128.5,64.25c-22.52,41.82-5.16,127.54,4.88,167.66a53.25,53.25,0,0,0,24.19,32.64l46.87,28.24a43.31,43.31,0,0,0,8.86,4.07l143.11,3.12,43.7-34c14.6-7.3-.46-79.11-.46-79.11-3.23-38.75-10.22-88.43-23.3-125h0a24.92,24.92,0,0,0-5.3-8.67C590,396.45,568,374,546.74,363.36,521,350.51,486.77,354.79,486.77,354.79Z" style="fill:#5260ff;opacity:0.51"/><g style="clip-path:url(#bbb20006-5f8c-4f38-80f5-e01376562e01)"><path d="M523.8,650.9a22.05,22.05,0,0,1,20.48-12.81c15.36,0,7.68,15.37,7.68,15.37Z" style="fill:#fdcbaa"/><path d="M599.84,387.69l-.11,49.7a125.35,125.35,0,0,1-1.05,16L572.44,654.63,641,710.31s42.84-167,42.84-175.62,8.75-138.05,8.75-138.05Z" style="fill:#5260ff"/><g style="clip-path:url(#bb7951d6-7698-4db3-908f-078b895182a6)"><path d="M557.61,588.2s20.37-24,52.16-14.64,30.69,25,30.69,25" style="fill:none;stroke:#5260ff;stroke-miterlimit:10;stroke-width:9.06280966566033px;opacity:0.2;mix-blend-mode:multiply"/></g><path d="M605.08,633.5a22,22,0,0,0-20.48-12.8c-15.36,0-7.68,15.36-7.68,15.36Z" style="fill:#fdcbaa"/><path d="M554.1,635.93a22.06,22.06,0,0,0-20.49-12.8c-15.36,0-7.68,15.36-7.68,15.36Z" style="fill:#fdcbaa"/><path d="M940.78,627.73l-2.72.39c-1.62,2.51-2.44,13.73-5.4,14.17l-16.1,1.7a10.45,10.45,0,0,0-7.47,5.06l-4.45,7.65a10.41,10.41,0,0,0,9.62,15.64l32.2-2a10.39,10.39,0,0,0,5.27-1.81l18.46-12.68C961.87,647.3,958.54,630.68,940.78,627.73Z" style="fill:#fdcbaa"/><path d="M366.45,400.48c.3.16,44.52-10.74,51.79,44.26C423.1,481.6,435,526.29,445,551.55c10.08,25.53,34.29,55.57,34.29,55.57a4.75,4.75,0,0,1-2.69,7.55c-10.55,2.39-31.32,9.54-36.61,30.71-.64,2.56,1.9,5,1.28,5.76-13,16.65-100.14-39.34-100.14-39.34L306.87,440.46Z" style="fill:#5260ff"/><g style="clip-path:url(#f45cda7d-62b8-454a-b6e0-7fd91391d70a)"><path d="M396.84,628.93s-4.66-31.12,23.3-48.91,44.65-5.37,44.65-5.37" style="fill:none;stroke:#5260ff;stroke-miterlimit:10;stroke-width:9.06280966566033px;opacity:0.2;mix-blend-mode:multiply"/></g></g><polygon points="458.96 389.06 548.91 389.06 553.2 303.39 480.38 290.54 458.96 303.39 458.96 389.06" style="fill:#fdcbaa"/><path d="M484.66,277.69s-21.42-8.57-25.7,17.13,0,38.55,0,38.55h4.28s0-42.83,17.14-38.55S506.08,312,523.21,312a59.24,59.24,0,0,0,30-8.57l-1.3,29.95,8.17-24A10.49,10.49,0,0,0,557.39,299l-4.2-4.2s12.86-25.7-8.56-30-38.55,12.85-38.55,12.85S497.51,282,484.66,277.69Z" style="fill:#232323"/><path d="M459,346.22s4.28,25.7,17.13,34.27,12.85-12.85,34.27-12.85a34,34,0,0,1,30,17.13l.07,0a17.37,17.37,0,0,0,5.14-8.37l5.06-18.71-1.7,52.83s0,21.42-30,21.42-55.69-8.57-60-25.7S459,346.22,459,346.22Z" style="fill:#232323"/><path d="M501.57,384c1.16,0,2.32.08,3.48.15,4.82.27,9.65.3,14.48.4,1.88,0,3.76.11,5.64.18-1.61-3-6-9.37-14.18-9.37-7,0-9.41,5.9-12.06,8.37A8.76,8.76,0,0,0,501.57,384Z" style="fill:#fdcbaa"/><circle cx="457.25" cy="337.49" r="8.55" style="fill:#fdcbaa"/><circle cx="545.49" cy="340.05" r="8.55" style="fill:#fdcbaa"/><path d="M511,308.4s28.78-7.67,24.94-28.13" style="fill:#3f3f3f"/><path d="M524.39,308.4s28.78-7.67,24.94-28.13" style="fill:#3f3f3f"/><polyline points="632.94 704.4 627.46 727.6 651.73 710.61 649.3 730.03 673.58 715.46 668.73 734.88" style="fill:none;stroke:#5260ff;stroke-linecap:round;stroke-linejoin:round;stroke-width:2.427803971120234px"/><polyline points="398.52 739.3 399.98 719.63 378.94 736.88 378.04 720.72 356.59 736 358.07 719.5" style="fill:none;stroke:#5260ff;stroke-linecap:round;stroke-linejoin:round;stroke-width:2.207109872088538px"/><path d="M580.4,666l-40.62,0c-3.52,0-6-2.65-5.47-5.93l13.07-85.48a7.44,7.44,0,0,1,7.28-5.94l40.62,0c3.52,0,6,2.66,5.47,5.94l-13.07,85.48A7.44,7.44,0,0,1,580.4,666Z" style="fill:#1d2322"/><g style="clip-path:url(#ef8d5966-e1ba-4520-ab00-e9efab2ecaec)"><circle cx="555.8" cy="576.03" r="2.85" style="fill:#5260ff"/></g><path d="M472.16,611.09a8.17,8.17,0,0,1,6.48.38l38.49,19.4a10.4,10.4,0,0,0,8.56.37l33.89-.44h2.52c4.46.17,4.8,4.12,4.06,8.62l-1.69,10.3a12.91,12.91,0,0,1-11.21,8.95l-18,1.87c-1.89.11-3.56-1-5.44-1.18l-89.36-9.46c-2.51-.18-2.53-13.28,7.29-24.28C454.4,618.23,466.31,613.22,472.16,611.09Z" style="fill:#fdcbaa"/><path d="M625.48,605.85c-2.78-2-6.65-4-10.16-4.49-5.93-.76-17-2.43-19.43,7.28-.75,3-1.56,13.11-2.42,17s-10,3.29-16.06,4.07l-2.06.26c-4.57,1.65-5.74,4.8-6.55,9.35-.47,2.6-1.89,7.28-1.84,10,.09,5.22,1.74,8,7.67,7.82,5-.11,10.06-.4,15.88-.77s11.46-1,14.37-3.12c7.11-5.08,11.69-16.11,15.57-23.59a150.43,150.43,0,0,0,7.2-15.25C629.23,610.26,628,607.6,625.48,605.85Z" style="fill:#fdcbaa"/><path id="a58454b0-60aa-4056-8b56-ade11adf1ded" data-name="Path 3" d="M310.77,64.71c-4.51-1.61-9-3.6-13.74-3.22-5.06.27-10.34-.81-15.24,1.23a34.75,34.75,0,0,0-10.65,6.19c-2.4,1.94-4.55,4.46-7.3,5.59-5.23-.26-10.47,0-15.71.17a36,36,0,0,0-12.88,5.91c-3.73,2.38-5.75,7.16-7.94,11.35a35.23,35.23,0,0,0-3.22,13c-7.81,0-16.11.11-23,5.33-2.92,2.47-6.48,4.14-8.54,7.91-3.05,5.22-5.71,11.35-5.11,18.07,1.9.11,3.82.27,5.71.27,63.8-.16,127.59.16,191.35-.16-.3-5-.77-10.27-3-14.58-1.85-3.49-3.44-7.47-6.44-9.57a32.63,32.63,0,0,0-17.21-8c-6.79-1.51-13.66-.38-20.53-1.08,0-6-2.05-11.4-4-16.72a23.11,23.11,0,0,0-3.86-6.3,40.47,40.47,0,0,0-8-8.5C318,69.18,314.68,66.11,310.77,64.71Z" style="fill:#c7ecff;opacity:0.300000011920929;isolation:isolate"/></g></g></svg>