<svg id="a0736917-5156-45bf-8d4f-ca1d2f4dc1f4" data-name="Layer 1" xmlns="http://www.w3.org/2000/svg" xmlns:xlink="http://www.w3.org/1999/xlink" width="1024" height="1024" viewBox="0 0 1024 1024"><defs><clipPath id="f9c14ff8-4b73-4f84-8e21-35070aaaf298"><path d="M-680.23,354.79s-98.52,8.57-128.5,64.25c-22.52,41.82-5.16,127.54,4.88,167.66a53.25,53.25,0,0,0,24.19,32.64l46.87,28.24a43.31,43.31,0,0,0,8.86,4.07l143.11,3.12,43.7-34c14.6-7.3-.46-79.11-.46-79.11-3.23-38.75-10.22-88.43-23.3-125h0a24.92,24.92,0,0,0-5.3-8.67c-10.81-11.5-32.86-34-54.08-44.59C-646,350.51-680.23,354.79-680.23,354.79Z" style="fill:#5260ff;opacity:0.51"/></clipPath><clipPath id="bc72ab04-2d95-4363-97dd-e190020bfde0"><path d="M-800.55,400.48c.3.16,44.52-10.74,51.79,44.26C-743.9,481.6-732,526.29-722,551.55c10.08,25.53,34.29,55.57,34.29,55.57a4.75,4.75,0,0,1-2.69,7.55c-10.55,2.39-31.32,9.54-36.61,30.71-.64,2.56,1.9,5,1.28,5.76-13,16.65-100.14-39.34-100.14-39.34l-34.26-171.34Z" style="fill:#5260ff"/></clipPath><clipPath id="b4d931e3-cd5c-462f-9edc-7ed37a6572f0"><polyline points="202.2 762.81 156.2 761.11 149.39 502.17 205.61 502.17 205.61 573.72 202.2 762.81" style="fill:none"/></clipPath><clipPath id="eb11327c-1ccd-4e6f-b7ab-c791c4e4a863"><path d="M106.56,236.2c-3.94,15.07-3.9,49,0,61.32,3.49,10.94,6,10.1,11.36,14.53,13.23,11,21.79,2.45,33.52-6.1,3.21-2.34,8-4.89,10.3-8.67.8-2.27,1.52-4.22,2.22-6.57-.53-11.35-2.15-26.7-2.18-37.12s1.41-16,1.53-25.45c-18.85,2.4-37.83,4.44-56.73,6.67l-.06,1.39" style="fill:none"/></clipPath><clipPath id="e2e4c603-bc54-42b9-832a-a22d799dc051"><path d="M108.23,275.63h0c-4.54.06-7.14-3.36-7.65-7.55v-.31c.35-2.06,1.31-3.54,3.68-3.64s5.59-.13,8-.07,3.33,1.53,3.68,3.58V268c-.53,4.2-3.11,7.63-7.66,7.68" style="fill:none"/></clipPath><clipPath id="e0b874b3-ddc9-4fb1-a163-097c3ac4355d"><path d="M134.94,275.3h0c-4.52.05-7.12-3.3-7.6-7.49v-.3c.37-2.06,1.35-3.51,3.72-3.61s5.59-.13,7.95-.08,3.32,1.49,3.65,3.53v.3c-.57,4.18-3.19,7.6-7.71,7.65" style="fill:none"/></clipPath><clipPath id="bda32df2-54b3-466a-952e-1ddae6b7a3de"><path d="M240.73,375.84c-1.94-10.85-4.85-16.18-11.28-25.29a55,55,0,0,0-23.84-18.74c-6.29-2.61-30.67-10.22-30.67-10.22S171,288.81,169.41,272c-6.73,5.33-14,7.93-20.62,14.14s-18.26,19.93-23.16,25.8-2.52,6.72-5.74,11.26c-10.29,4.78-14.39,4.44-26.72,10.32S73.85,346.58,70.5,367.19s-6.34,62.1-9.72,86.78c-4.41,1.83-35.25,4-35.34,4-9.26-.87-11.47-2.67-17-3.71A15.06,15.06,0,0,0,2.07,454c-3.4.44-7,1.08-10.36,1.67a3.54,3.54,0,0,0-2.56,1.43C-15.56,462.37-20.3,468-25,473.3q9.49,0,19,.06c2.61-2.72,5.36-5.76,7.91-8.39a4.59,4.59,0,0,1,3.4-1.47,8.64,8.64,0,0,1,1.44,0,4.83,4.83,0,0,1,3.86,2.11c.38.52.9,1.41,1.27,1.92a11.27,11.27,0,0,0,4.05,3.59,5.39,5.39,0,0,0,.59.31c4.42,1.72,6.21,2.74,11.58,3.28l17.11,1.66c8.09.78,22.19,3.43,30.9,3.67S90,476.15,92,467.83c3.12-13.18,4.62-28,7-41.52,4.47,35.78,0,73.08-3.75,108.85,4.85.92,11.68,2.65,16.12,3.44,21,3.72,37.88,4.47,59.54,1.46,10.32-1.44,25.62-4.21,36.77-5.89-1.33-37.57-2.73-75.06-4.6-112.58l2-1c1.13,9.66,2.33,19.29,3.59,28.95,10.79,6.42,21.59,13.18,32.44,19.3,5.86-29.08,4.45-65.76-.4-93" style="fill:none"/></clipPath></defs><path id="f80c3e9d-e187-405c-b6e2-8a5767976975" data-name="Path 1" d="M730.82,712.27c-40.43,24-82.69,42.38-124.61,61.7-19.21,8.88-38.58,15.55-54.28,31.59-14.68,15.06-23.87,37-39.37,51.11-12,11-26.61,16.67-41.21,20.4-62.63,15.54-127.59-2.63-179-50.08-46.26-43.21-78.12-109.62-87.47-180.89-5.67-43.21-.51-87.8-7.67-130.77-7.55-45.42-30.84-78.24-50.13-116.5a382.63,382.63,0,0,1-30.8-86.13c-4-17.46-6.85-35.9-4.31-53.81,7-48.61,49.63-74.66,88.14-85.2a294.7,294.7,0,0,1,146.24-2.45c37.81,9.12,78,28.45,117,22.22,44.07-7.07,66.89-55.77,100-87.26C637.91,35.37,758,65.83,819.85,146.27c76.35,99.33,121.24,294.4,58.38,416.83-34.24,66.71-88.48,113.8-145.62,148A18.52,18.52,0,0,1,730.82,712.27Z" style="fill:#f3fbff"/><path d="M-561.49,635.23C-546.63,627.8-557,527.1-557,527.1c-3.22-38.75,9.21-73.86-3.87-110.48h0a24.81,24.81,0,0,0-5.29-8.65c-10.19-10.85-30.39-31.47-50.47-42.69l.25-7.64-.16.57.59-11.66a8.53,8.53,0,0,0,3-6.5,8.55,8.55,0,0,0-2.39-5.92l1.53-30.74-1.3,29.95,8.17-24A10.49,10.49,0,0,0-609.61,299l-4.2-4.2s12.86-25.7-8.56-30-38.55,12.85-38.55,12.85-8.57,4.28-21.42,0c0,0-21.42-8.57-25.7,17.13-2.84,17-1.92,28.41-1,34.15-.24,0-.49,0-.74,0a8.57,8.57,0,0,0-8.16,11.18,8.32,8.32,0,0,0,5.34,5.46,8.75,8.75,0,0,0,4.53.29v.35s-.55,5.5-1.06,13.33c-31.52,6.95-80.11,23.23-99.63,59.49-22.52,41.82-5.16,127.54,4.88,167.66a53.25,53.25,0,0,0,24.19,32.64l46.87,28.25a43.81,43.81,0,0,0,8.86,4.06l2.3-4.17,80.12,7.29Z" style="fill:#341061"/><path d="M-680.23,354.79s-98.52,8.57-128.5,64.25c-22.52,41.82-5.16,127.54,4.88,167.66a53.25,53.25,0,0,0,24.19,32.64l46.87,28.24a43.31,43.31,0,0,0,8.86,4.07l143.11,3.12,43.7-34c14.6-7.3-.46-79.11-.46-79.11-3.23-38.75-10.22-88.43-23.3-125h0a24.92,24.92,0,0,0-5.3-8.67c-10.81-11.5-32.86-34-54.08-44.59C-646,350.51-680.23,354.79-680.23,354.79Z" style="fill:#5260ff;opacity:0.51"/><g style="clip-path:url(#f9c14ff8-4b73-4f84-8e21-35070aaaf298)"><path d="M-800.55,400.48c.3.16,44.52-10.74,51.79,44.26C-743.9,481.6-732,526.29-722,551.55c10.08,25.53,34.29,55.57,34.29,55.57a4.75,4.75,0,0,1-2.69,7.55c-10.55,2.39-31.32,9.54-36.61,30.71-.64,2.56,1.9,5,1.28,5.76-13,16.65-100.14-39.34-100.14-39.34l-34.26-171.34Z" style="fill:#5260ff"/><g style="clip-path:url(#bc72ab04-2d95-4363-97dd-e190020bfde0)"><path d="M623.78,707.58s-4.28-30,21.42-47.12,35.87-6.41,35.87-6.41" style="fill:none;stroke:#5260ff;stroke-miterlimit:10;stroke-width:9.06280966566033px"/></g></g><path id="fbd37a4e-524d-4694-bbbf-264c94855332" data-name="Path 3" d="M394.48,47.33c-2.52-.91-5.05-2-7.69-1.81-2.84.15-5.79-.45-8.53.69a19.7,19.7,0,0,0-6,3.46c-1.34,1.09-2.54,2.5-4.08,3.14-2.93-.15-5.87,0-8.8.09a20,20,0,0,0-7.21,3.31c-2.09,1.33-3.22,4-4.45,6.35a19.9,19.9,0,0,0-1.8,7.26c-4.37,0-9,.06-12.86,3-1.63,1.39-3.63,2.32-4.78,4.43-1.71,2.92-3.2,6.36-2.86,10.12,1.06.06,2.14.15,3.2.15,35.71-.09,71.43.09,107.12-.09-.17-2.8-.43-5.75-1.68-8.16-1-2-1.92-4.19-3.6-5.36a18.28,18.28,0,0,0-9.64-4.49c-3.8-.84-7.64-.21-11.49-.6,0-3.34-1.15-6.38-2.21-9.36A12.81,12.81,0,0,0,405,55.91a22.72,22.72,0,0,0-4.5-4.76C398.52,49.82,396.67,48.11,394.48,47.33Z" style="fill:#c7ecff;opacity:0.300000011920929;isolation:isolate"/><path id="e4c91e6a-9863-40e5-be69-c4a77a5ac736" data-name="Path 3" d="M212,71.87c-3.06-1.09-6.11-2.44-9.31-2.19-3.44.19-7-.54-10.33.84a23.67,23.67,0,0,0-7.22,4.19c-1.63,1.32-3.08,3-4.94,3.8-3.55-.19-7.1,0-10.65.11a24.32,24.32,0,0,0-8.73,4c-2.53,1.6-3.9,4.84-5.38,7.69a23.7,23.7,0,0,0-2.18,8.78c-5.3,0-10.92.07-15.57,3.61-2,1.68-4.39,2.8-5.79,5.36-2.06,3.54-3.87,7.69-3.46,12.25,1.28.07,2.59.18,3.87.18,43.23-.11,86.46.11,129.67-.11-.2-3.39-.52-7-2-9.88-1.25-2.37-2.33-5.06-4.37-6.48a22.13,22.13,0,0,0-11.66-5.44c-4.6-1-9.25-.25-13.91-.72,0-4.05-1.39-7.73-2.68-11.34a15.54,15.54,0,0,0-2.62-4.26,27.25,27.25,0,0,0-5.44-5.77C216.91,74.9,214.67,72.82,212,71.87Z" style="fill:#c7ecff;opacity:0.300000011920929;isolation:isolate"/><g id="b23343b4-8153-4e12-8c84-33e820d02bdd" data-name="Group 7133"><path id="a66e0519-f5d4-43e3-8efa-cfe35fc30d71" data-name="Path 9560" d="M861.9,815.72l-12-2.27L851,767.7l18.87,7.4-7.66,29,18.56,5.19Z" style="fill:#fdcbaa"/></g><g id="be7fcf8e-6c64-4674-8a02-d7bdfc60d499" data-name="Group 7134"><path id="e335a209-83b2-4da7-918b-8096d990ea3b" data-name="Path 9561" d="M784.72,772.93l6.54,5.94,3.88,6.36-25.33-7.15-.93-4.54,16.88-23.34,29-.44Z" style="fill:#fdcbaa"/></g><g id="e714f635-0092-4943-a6c1-81c631162bbd" data-name="Group 7135"><path id="ed5896ca-534b-4acb-b7f8-3c6678fbae9c" data-name="Path 9562" d="M856.4,233.42a29.54,29.54,0,0,0-31.73,23.44c-2.27,11.45-1.41,28.22,7,52.63l38.74-13.1L896.72,266S895,236.65,856.4,233.42Z" style="fill:#4d5068"/></g><g id="f89b7c34-2734-4a08-a375-fabacd001040" data-name="Group 7136"><rect id="f5b4fcba-a47a-403e-8954-0b705dde013b" data-name="Rectangle 3669" x="809.68" y="301.81" width="70.61" height="30.32" transform="translate(93.09 816.09) rotate(-54.14)" style="fill:#fdcbaa"/></g><g id="f97a7fa8-373e-4685-9b5e-314759e3fd06" data-name="Group 7137" style="opacity:0.200000002980232"><path id="addf7e9b-99b5-435b-b8b4-eb20d6c676fd" data-name="Path 9563" d="M860.14,321.9l-29.87-10.42,23.1-32L878,297.25Z" style="fill:#494949"/></g><g id="a93aeeae-0f37-4c1c-ad53-4f301829fb0a" data-name="Group 7138"><path id="a9b69fb2-9a0f-456a-8a95-83fcfb5db826" data-name="Path 9564" d="M896.68,265.94s5,15.64,1.24,24.06l-4,5s-.66,10.14,1.58,13.68a.3.3,0,0,1-.07.45c-.89.75-4.19,3.33-7.15,1.16l-9.38,15.3a7.1,7.1,0,0,1-9.78,2.33,5.39,5.39,0,0,1-.5-.33L853.37,317a16.69,16.69,0,0,1-4.26-22.21l2.54-4.12s-2.71,1.75-2.54-8.29c.07-4,1.24-9.35,4.88-11,1.37-.59,7.11.34,7.66,1.14,1.17,1.65,1.31,8.56,1.28,11.89a.36.36,0,0,0,.34.38.37.37,0,0,0,.34-.21C866.54,278.24,878,256.86,896.68,265.94Z" style="fill:#fdcbaa"/></g><g id="a6fca9e6-a0ea-44d5-b671-644cc4b521e3" data-name="Group 7139"><path id="baf127c8-43cd-44e7-b51b-4dedd8e66c87" data-name="Path 9565" d="M821,275.08c-.55-9.25.11-18.7,3.44-27.43l-.65-1.34c-2-5.95-4.57-12.17-9.83-15.51a14.89,14.89,0,0,0-20.55,4.56,14.6,14.6,0,0,0-1.18,2.25c-1.54,3.68-1.54,7.77-1.27,11.76A90,90,0,0,0,800,283c3.48,7,7.84,13.54,10.08,21,1.58,5.3,2.47,13.17-1.35,17.7a34.44,34.44,0,0,0,6.4-9.72,10.51,10.51,0,0,0,2.27,7.87c.2-5.16,4.74-9.08,6.32-14a20.59,20.59,0,0,0,.76-6.29C824.46,291.2,821.47,283.5,821,275.08Z" style="fill:#4d5068"/></g><g id="f2df9810-82a1-471d-b7eb-6b0c26df2b72" data-name="Group 7140"><path id="ede3e1c2-3407-4630-9c2d-3ec04cc5892e" data-name="Path 9566" d="M896.1,263.74a2.82,2.82,0,0,0-.83-1.1c-.24-.24-.41-.55-.65-.79a10.39,10.39,0,0,0-2.54-1.76,19.23,19.23,0,0,0-5.88-1.68l-.24,0c-8.05-1.1-17.46-.42-23.82,5.05-7,6.05-15.33,9.53-23.65,13.62a18.7,18.7,0,0,0-6.32,4.29c-2.34,2.82-2.69,6.78-2.58,10.45a52.07,52.07,0,0,0,1.64,11.31,22.64,22.64,0,0,1,.79,4.47c0,.72-1,1.45-.69,2.24,1.62,3.95,9.39-.69,11.21-2.34a22,22,0,0,0,6.19-9.28c.89-2.82,4.57-4.34,4.12-7.67a11.08,11.08,0,0,0-1.61-3.57,10.92,10.92,0,0,1,0-10,8.43,8.43,0,0,1,4.37-4,6,6,0,0,1,5.74.79,4.87,4.87,0,0,1,1.48,5,53.22,53.22,0,0,0-.83,6.53,4.61,4.61,0,0,0,.72,3.23,9,9,0,0,0,4.23-4.4,26.73,26.73,0,0,1,3.2-5.33,13.23,13.23,0,0,1,7.29-3.47c1.48-.24,3.19.17,4.6-.13s2.65-1.45,3.89-2a60.27,60.27,0,0,1,6-2.2,31.93,31.93,0,0,0,3-1.17c.45-.2,1.86-.65,2-1.13a5,5,0,0,0,.14-1.28c0-.38-.24-.75-.34-1.2s-.18-.38-.18-.62A6.48,6.48,0,0,0,896.1,263.74Z" style="fill:#4d5068"/></g><g id="e6c021ec-d068-46fd-a237-2e75ee92d73d" data-name="Group 7141"><path id="ed917a3d-cc17-46b0-903b-9087ea8004c4" data-name="Path 9567" d="M859.32,647.6,778.78,759.9l17.08,4.54L876.2,702Z" style="fill:#0b3c4f"/></g><g id="eda113cb-ec86-4f12-9f94-b923b0f18783" data-name="Group 7142" style="opacity:0.300000011920929"><path id="b54ad761-4634-4aa0-8a2c-89c9d462bb3e" data-name="Path 9568" d="M847.35,668.26l-2.61,60.5L876.19,702,859.32,647.6l-12.55,15.92Z" style="fill:#191c3c"/></g><g id="a1df22f2-ef68-4600-9de0-33793bb52b3a" data-name="Group 7143"><path id="a687bf34-6b90-441d-bb37-e5426f3dfd36" data-name="Path 9569" d="M899.09,506.8V656.5L869.91,775.06l-19.39,4.16,2.48-111-11.49-90.54L826.7,551.35a37.67,37.67,0,0,1-4.51-23.55l1.52-11.1Z" style="fill:#0c4968"/></g><g id="ebdc9909-6ced-414b-9a1e-60c30a3c1cfa" data-name="Group 7144"><path id="e2df3634-f2fd-4c17-b642-66a9688f20bf" data-name="Path 9570" d="M933.74,422.07l.24-1.24,7.87-3.78-5.64-8.12a2,2,0,0,0-1.27-1.85l-8.45-3.27a3.18,3.18,0,0,0-2.89.28l-12.24,7.84H900.19l-9.48,4.43V430.9h19.86S922,437.16,926,436.68c1.68-.21,5.64-3.75,5.64-3.75l3.4.58a4.22,4.22,0,0,0,4.37-2l1.3-2.2,3.58-.1a3.07,3.07,0,0,0,2.92-2.58l.38-2.51s3-.93,3.5-1.72c.69-1,.55-4.85.55-4.85l-5.46,2.34L924.8,431.8l-4.3-2.34Z" style="fill:#fdcbaa"/></g><g id="ea3cd14b-eeb2-4426-a792-58ea776196fe" data-name="Group 7145" style="opacity:0.200000002980232"><path id="a1b42c13-24c4-40b6-a241-b3e588c7d008" data-name="Path 9571" d="M903.08,423.85,905.86,412h-5.64l-9.48,4.4V430.9h12.92Z" style="fill:#1d1d1b"/></g><g id="b6b644dd-5079-4780-8c9a-0fba8c204104" data-name="Group 7146" style="opacity:0.300000011920929"><path id="b2610458-1905-4e7d-bd01-c6c308a65aeb" data-name="Path 9572" d="M899.09,506.8l-75.42,9.93-1.52,11.11a37.62,37.62,0,0,0,1.45,16.36c14-7.91,49.5-26.88,75.48-31.76Z" style="fill:#191c3c"/></g><g id="faa3600e-0900-412a-b42b-d449ccdeb423" data-name="Group 7147"><path id="a2d0e556-7d88-43fb-a012-e798ea4e0144" data-name="Path 9573" d="M813.77,334.24,801.6,346l15.95,196.07s53.94-32.28,86.76-36.09l-6.87-82.13,3.16-13.71a35,35,0,0,0-7.87-25.58l-41.52-50.32h0A15.26,15.26,0,0,1,834.74,340Z" style="fill:#5260ff"/></g><g id="a915b59d-9ed4-4684-8042-81da68d34289" data-name="Group 7149"><g id="f1f888d7-e9ff-4c00-8051-180eab15b362" data-name="Group 7148" style="opacity:0.300000011920929"><path id="f5047741-5050-46c1-a9fb-ed5dfef47b4d" data-name="Path 9574" d="M824.15,346l-10.34-11.76L801.64,346l16,196.07s8.83-5.3,21.55-11.86Z" style="fill:#5260ff"/></g></g><path id="ab008ebe-58dc-4f62-8894-e4df0f5c35e4" data-name="Path 9575" d="M971.55,407.53l-48.09,25.4a2.31,2.31,0,0,1-3.13-1l-.52-1a2.37,2.37,0,0,1,1-3.16l48.09-25.4" style="fill:#191c3c"/><g id="be27184f-8369-4e9e-9bc1-ab7ecf4843c5" data-name="Group 7151"><path id="e001ee97-249e-49b9-a69a-a1571a77dabf" data-name="Path 9576" d="M860.18,548.87l6.46,6.5a4.47,4.47,0,0,1,1.24,2.27c1.06,4.91,4.33,21.86-.31,23.79-1.28.51-3.89-3.82-3.89-3.82s-1.75,4.85-3.19,4.85-3.3-4.75-3.3-4.75-1.34,4.61-2.69,4.75c-1.58.17-4.12-4.75-4.12-4.75s-2.58,4.54-4,4.23c-1.82-.38-2.47-7-2.47-7l-3.16-13.51a6.68,6.68,0,0,1,1.1-5.53l3.47-4.92-2.41-12.86,15.37-2.23Z" style="fill:#fdcbaa"/></g><g id="b8713b5e-c6b1-4e36-9374-909297c313d3" data-name="Group 7152" style="opacity:0.200000002980232"><path id="bf7b7e86-6fc1-4525-a114-646832880f56" data-name="Path 9577" d="M858.25,535.85l-15.36,2.23,2,10.55h15.26Z" style="fill:#191c3c"/></g><g id="b6d6a633-9dc5-445b-a52c-b478d7b1eb1d" data-name="Group 7153" style="opacity:0.200000002980232"><path id="b6cb438e-69ae-4112-9232-732f2d24b01f" data-name="Path 9578" d="M897.47,423.85l.52-2.26h0c-5.71-.07-8.36,2.75-17.12.58-3-.72-3.71,1.1-.76,1.48,3.88.48,8.18,5,11.86,5.64a2.1,2.1,0,0,0,1.61,2.16,12.07,12.07,0,0,0,1.59.31,6.78,6.78,0,0,0-.76,2.3c0,1.31.76,2,1.14,3.13.48,1.55.37,3,1.27,4.47a27.88,27.88,0,0,0,2.54,3.64Z" style="fill:#1d1d1b"/></g><g id="ac348955-749e-431b-9dbd-df79764abe89" data-name="Group 7154"><path id="b8c286a9-87b5-4a44-8716-2904c298e6d2" data-name="Path 9579" d="M822.09,258.72l-.62-.24a3.71,3.71,0,0,1-2.23-4.68l3.64-10.24a3.71,3.71,0,0,1,4.68-2.23l.62.24a3.7,3.7,0,0,1,2.23,4.67l-3.68,10.24a3.6,3.6,0,0,1-4.56,2.27Z" style="fill:#191c3c"/></g><g id="fb6dab98-5b59-4cae-8bf3-e9719008dd33" data-name="Group 7155"><path id="fa4f7d10-e8ca-49d7-ac33-6aa2dcce99da" data-name="Path 9580" d="M813.77,334.24,801.63,346,812,447.64l27.61,97.25H863.1L837.28,443.1l-.69-88.61Z" style="fill:#5260ff"/></g><g id="b2aa648f-6cd6-43a5-b165-6e5e460460c2" data-name="Group 7156" style="opacity:0.200000002980232"><path id="f50170d1-1212-4415-b147-de9596b51af4" data-name="Path 9581" d="M836.87,446.1a2.38,2.38,0,0,0,.1-1.21,8.87,8.87,0,0,0,2.2-2.92c2.79-5.4-.24-18.7-.24-24.65,0-7.39-.92-14.74-1.13-22.13-.11-3.75.44-7.43.48-11.14,0-3-1.86-5.26-2.24-8.11-1.3,3.71-.48,7.35-.55,11.17-.06,5.39-.17,10.83-.24,16.22a123.37,123.37,0,0,1-.89,15.61,29.56,29.56,0,0,0-.69,6.22,70.44,70.44,0,0,1-1,12.79c-.72,3.33-3.26,4-6,5.88a8,8,0,0,1,3-.49.57.57,0,0,1,.38.14c.11.14,0,.35-.1.48a32.48,32.48,0,0,1-3,4.16l7.94,1.45c-1.14.17-2.31.31-3.44.48,1.07.86,2.13,1.72,3.2,2.54a11.74,11.74,0,0,1,2.85,2.82,13.34,13.34,0,0,1,1.31,2.75,98.33,98.33,0,0,1,4.29,16.26c.52,2.72,1.24,5.53,1.52,8.28.11.9-.17,1.86,0,2.75a10.24,10.24,0,0,0,1.85,3.34,22.88,22.88,0,0,1,2.51,6.84c.76,3,1.55,6.05,2.31,9.07,1-2.92-.52-6-1-9a23.68,23.68,0,0,1-.2-3.47A145,145,0,0,0,847,467.37c-1.35-7-3.17-15.81-9-20.52C837.59,446.61,837.25,446.34,836.87,446.1Z" style="fill:#1d1d1b;opacity:0.300000011920929;isolation:isolate"/></g><path id="e0479c1b-42ca-4705-9d57-736e0eef9ce0" data-name="Path 9582" d="M862.24,804.07s34.3,4.81,32.41,11.55-44.68,3.3-44.68,3.3l0-8.35S895.31,815.28,862.24,804.07Z" style="fill:#22343d"/><path id="af701389-19a8-4b38-a283-677c947ff33b" data-name="Path 9612" d="M784.72,772.93s28.23,18.66,23.59,23.89-43.69-16.12-43.69-16.12l4.26-7.15S809.65,797.37,784.72,772.93Z" style="fill:#22343d"/><path id="a0bf346e-b9b6-4e19-a431-c9565608aab3" data-name="Path 9588" d="M236.89,743l21.69,16.36,16.78-21.25L254,721.28" style="fill:#fdcbaa"/><path id="b5062a35-dcf6-4938-bbab-4c418a40d44b" data-name="Path 9611" d="M239.09,813.57c-.49-2,5.85-21.86,8.81-34.73a58,58,0,0,0,.36-20.43l-.56-3.5c-.52-2.79-1-4.59-1-4.59s9.88-.17,17.37-5.44,8.54-8.93,8.54-8.93l16.28,12.91c2.84,2.24,4.6,6.18,3.36,9.35h0s-42.19,54.28-45.64,58.65-7.06-1.3-7.54-3.29" style="fill:#184968"/><path id="f39db0b6-2828-4ea6-a550-600cad523b7f" data-name="Path 9588" d="M165.11,755.57l.6,27.16h27.08V755.57" style="fill:#fdcbaa"/><path id="b13a10d4-f7d6-4f24-9cbf-c9e2b5b269a4" data-name="Path 9611" d="M111.09,801c1.26-1.61,20.78-8.95,32.72-14.6A58,58,0,0,0,160.06,774l2.4-2.61c1.87-2.13,3-3.6,3-3.6s6.26,7.64,15,10.25,12.29,1.17,12.29,1.17l0,20.78c0,3.61-2,7.43-5.26,8.43h0s-68.75.53-74.31.53-3.35-6.35-2.09-8" style="fill:#184968"/><path d="M240.73,375.84c-1.94-10.85-4.85-16.18-11.28-25.29a55,55,0,0,0-23.84-18.74c-6.29-2.61-30.67-10.22-30.67-10.22S171,288.81,169.41,272c-6.73,5.33-14,7.93-20.62,14.14s-18.26,19.93-23.16,25.8-2.52,6.72-5.74,11.26c-10.29,4.78-14.39,4.44-26.72,10.32S73.85,346.58,70.5,367.19c-1.23,7.56-2.41,17.94-3.58,29.26,16.09,7,40.63,16.93,40.63,16.93L95.8,535.26c4.81.94,11.31,2.58,15.6,3.34,21,3.72,37.88,4.47,59.54,1.46,10.32-1.44,25.62-4.21,36.77-5.89-1.33-37.57-2.73-75.06-4.6-112.58l2-1c1.13,9.66,2.33,19.29,3.59,28.95,10.79,6.42,13.92,10.17,24.77,16.29C239.32,436.74,245.58,403.06,240.73,375.84Z" style="fill:#fdcbaa"/><polyline points="202.2 762.81 156.2 761.11 149.39 502.17 205.61 502.17 205.61 573.72 202.2 762.81" style="fill:#5260ff"/><g style="clip-path:url(#b4d931e3-cd5c-462f-9edc-7ed37a6572f0)"><polyline points="154.42 648.47 154.69 668.62 153.77 668.63 155 715.65 202.53 744.57 203.72 678.48 154.42 648.47" style="fill:#41469c"/><polygon points="190.5 676.33 151.51 647.67 146.34 552.55 150.68 557.35 190.5 676.33" style="fill:#41469c"/><polyline points="153.22 647.74 153.77 668.63 154.69 668.62 154.42 648.47 153.22 647.74" style="fill:#18357b"/></g><path d="M149.77,624.52,152,502.25l-52.06.1-1.34,130a23.1,23.1,0,0,0,8.62,18.26L235.33,753.8l29.51-36.66Z" style="fill:#5260ff"/><path d="M169.53,276.21c.89-1.34,3.1-.69,4.25-1.15,7.79-3.08,10.17-6.24,8.59-14.58-.93-4.83-.55-9.09,2-13.33s1.75-7.59-1.75-10.58-3.9-5.93-3.74-10.15c.1-2.6.56-4.87.23-7.35-.64-4.95-3.53-7.82-8.41-8.48-3.33-.44-6.82.25-10-.23a24.47,24.47,0,0,1-9.23-3c-6.51-4.11-8.68-4.35-15.08.07-2.79,1.91-5.29,2.36-8.53.38-7.15-4.37-11.92-3.27-16.29,4a21.63,21.63,0,0,0-1.91,4.88c-1.56,5.17-4.49,7.82-9.68,9-4.2,1-5.74,3.49-5.4,7.64A16.72,16.72,0,0,0,97,240.22c2.32,4.16,2,7.32.09,11.46-3.2,7.17,7.63,12.5,10.86,18.12l9.68.06c.67-7.86-5.35-13.79-4.38-21.68.18-1.38,2.06-2.54,3.42-3a62.72,62.72,0,0,1,9.69-2.18,31.45,31.45,0,0,1,5.66-.12c2.87.07,5.88.27,8.68.32,1,0,2.34-.49,3-.08,5.46,3.14,8.3,6.68,15,7.41.81.09,3.6,2.3,3.41,3.81-.92,7.37-1.13,14.63-1.79,22C163.42,276.28,166.43,276.23,169.53,276.21Z" style="fill:#2a2c3d"/><path d="M106.56,236.2c-4,15.07-3.9,49,0,61.32,3.49,10.94,6,10.09,11.37,14.53,13.23,11,21.78,2.45,33.51-6.1,3.21-2.34,8-4.89,10.3-8.67.8-2.27,1.52-4.22,2.22-6.57-.53-11.35-2.15-26.7-2.18-37.12s1.41-16,1.53-25.44c-18.85,2.39-37.83,4.43-56.73,6.66" style="fill:#fdcbaa"/><g style="clip-path:url(#eb11327c-1ccd-4e6f-b7ab-c791c4e4a863)"><path d="M98,283.5c-1.3-7.41-5.72-13.51-6.79-21a52,52,0,0,1,.63-15.85C93.88,234.25,95.72,222,104,212c6-7.25,14.84-6.67,23.4-6.89a1.55,1.55,0,0,1,1.06,2.69,47.12,47.12,0,0,1,4.73-1.29L98.21,191.26c-6.37,9.35-12.71,18.7-19.1,28-4.28,25.31-10,50.82-12.52,76.37,6.77,6.08,13.78,11.9,20.63,17.93.22-.32.62-.18.81-.58s.39-1.1,1-1.21" style="fill:#aad6ec"/></g><path d="M120.15,305c3.27.53,6.49-.31,9.58-1.31" style="fill:#fff"/><path d="M120,306.07a14.44,14.44,0,0,0,2.26.18,25.56,25.56,0,0,0,7.81-1.53,1.06,1.06,0,0,0-.65-2,23.59,23.59,0,0,1-7.16,1.42,12.42,12.42,0,0,1-1.92-.15,1.06,1.06,0,0,0-.34,2.1Z"/><path d="M165.09,263.4c3.83-2,8.17-1.76,10.75,2s1.34,7.93-2.13,10.61c-1.73,1.34-3.71,1.33-5.92,1.3-1.29,0-3.21,0-4.59.08C163.8,272.74,164.43,268.09,165.09,263.4Z" style="fill:#fdcbaa"/><path d="M105.09,292.63c1.52,6.67-2.8,14-.17,20.94s14.7,5.42,25.74,6.37,30.51-10.69,32-25.24,3.57-18.34,1.7-31.06c-1.49.45-3.39.05-4.8.28-2.78,10.11-2.93,21.2-13.38,27.65S121.19,286.16,105.09,292.63Z" style="fill:#2a2c3d"/><path d="M154.6,225c10.41-2.77,15.55,4.82,16.31,14.92s-2.1,22.17-9.65,29.79a19.28,19.28,0,0,1-3-.24c2.51-7,4.31-24.07-5.37-23.74s-17.67,5.22-26.42,4-13.81-3.32-20.43-8.25c-.21,7.86-.62,15.73-.93,23.56-1.25-6.2-1.47,3-2.5-3-.62-3.63-1.13-21.57.92-24.22.79-1,2.2-1.94,3.09-3.12-3.1-8.73-3-20.38,7.56-22.44s19,4.39,25.73,11.54C144.46,226.7,149.58,226.07,154.6,225Z" style="fill:#2a2c3d"/><path d="M136.34,247.65c-10.43-4.56-16.09-11.81-15.5-23.31" style="fill:#5a6172"/><path d="M126.12,247c-10.44-4.57-16.11-11.81-15.5-23.32" style="fill:#5a6172"/><path d="M167.29,261.72c-5.61.58-17.92,2-22.24,2.45-1.1.11-1.72.18-2.1.24a4.63,4.63,0,0,0-.64.12l-.2.08,0,0,.46,1-.36-1-.1.05.46,1-.36-1,.31.88-.12-.92-.19,0,.31.88-.12-.92-1.23.08c-2.81.16-7.6.06-10.34.13l-2,0H128l-1.78,0c-2.8,0-8.12.08-11.35.12a1.36,1.36,0,0,0,0,2.71l11.35-.13h2.54l2.06,0c2.64-.07,7.44,0,10.44-.14l1.28-.08.25,0,.32-.09.07,0-.3-.64.28.64h0l-.3-.64.28.64-.37-.86.27.9.1,0-.37-.86.27.9-.12-.39.1.4h0l-.12-.39.1.4s.6-.11,2.25-.27c4.37-.45,16.67-1.88,22.25-2.45a1.37,1.37,0,0,0,1.21-1.49,1.35,1.35,0,0,0-1.49-1.2Z" style="fill:#fff"/><path d="M110,276.57a9.5,9.5,0,0,1-1.6,0c-5.16-.49-8.1-3.51-8.65-8.64a6.11,6.11,0,0,1,0-1.54c.45-2.38,1.31-4,4.21-4.13s7.63-.16,10.52-.09,3.75,1.69,4.2,4.05a6.62,6.62,0,0,1,0,1.54C118.08,272.92,115.13,275.94,110,276.57Z" style="fill:#fff"/><path d="M108.24,275.63h0c-4.55.06-7.15-3.36-7.66-7.55v-.31c.35-2.06,1.31-3.54,3.68-3.64s5.59-.13,8-.07,3.33,1.53,3.68,3.58V268C115.36,272.15,112.78,275.58,108.24,275.63Z" style="fill:#aad6ec"/><g style="clip-path:url(#e2e4c603-bc54-42b9-832a-a22d799dc051)"><path d="M102.58,280.31l-4-2.49c3.53-5.75,7-11.51,10.63-17.23,1.33.81,2.65,1.64,4,2.46C109.64,268.79,106.07,274.52,102.58,280.31Z" style="fill:#fff"/></g><path d="M136.7,276.23a9.62,9.62,0,0,1-1.61,0c-5.13-.5-8.08-3.44-8.59-8.56a6.61,6.61,0,0,1,0-1.54c.47-2.36,1.37-4,4.25-4.09s7.65-.16,10.52-.09,3.73,1.64,4.15,4a6,6,0,0,1,0,1.52C144.81,272.59,141.82,275.61,136.7,276.23Z" style="fill:#fff"/><path d="M134.94,275.3h0c-4.52.05-7.12-3.3-7.59-7.49v-.3c.37-2.06,1.35-3.51,3.72-3.61s5.59-.13,7.95-.08,3.32,1.49,3.65,3.53v.3C142.08,271.84,139.46,275.24,134.94,275.3Z" style="fill:#aad6ec"/><g style="clip-path:url(#e0b874b3-ddc9-4fb1-a163-097c3ac4355d)"><path d="M129.27,280l-4-2.45q5.33-8.6,10.77-17.11l4,2.43Q134.56,271.33,129.27,280Z" style="fill:#fff"/></g><path d="M128.21,289.56c-4.39,1.9-9.37,3.34-13.38-.2" style="fill:#e35e99"/><path d="M127.78,288.58a18.61,18.61,0,0,1-7.16,1.88,7.39,7.39,0,0,1-5.09-1.89,1.06,1.06,0,1,0-1.41,1.59,9.54,9.54,0,0,0,6.5,2.42,20.72,20.72,0,0,0,8-2.05,1.06,1.06,0,0,0-.85-1.95Z"/><g id="a9662743-80b9-44be-a18b-52eb0f0c4d65" data-name="Group 7186"><path id="e2ef8656-984e-440f-a7f2-8ac380c58d69" data-name="Path 9607" d="M66.91,399l-1.46,23.69L80.2,522.3l-1.73,12.85,1.73,17,4.25,5.37L90.3,560l6.31,3.32h2.66l5.64-3.32-3.63-6.64-1.43-10.56,2.31,5.58,4.37,1.66L101,530.56,94.78,514V431.73l2.35-28.21Z" style="fill:#fdcbaa"/></g><g style="clip-path:url(#bda32df2-54b3-466a-952e-1ddae6b7a3de)"><path d="M208.61,306.34c16.34,12,31.28,38.06,35.43,54.85s4.25,24.73.3,38.88C230.49,407,217,414.67,203.1,421.58c-5-13.58-10.16-27.09-15.93-40.39C194.55,356.36,201,330.83,208.61,306.34Z" style="fill:#5260ff"/><path d="M98,321.64c-18.75,4.17-33.94,23-37,39s-1.76,22.47-3,36.66c14.71,6.26,29.09,13.18,43.66,19.71,4.23-13.8,8.47-27.6,12.6-41.45C108.45,357.69,102.89,339.52,98,321.64Z" style="fill:#5260ff"/><path d="M211.63,324.91c-9.32,28.85-12.83,47.82-10.22,81.33.42,5.4.37-2.41,2.08,20.93s5.88,92.14,7.79,124.51c-40.7,4.8-81.76,4.44-122.58,7.46,6.52-48.26,16.39-130.23,7-148.74-3-15.68-4.27-41-3.22-54.54s1.06-15.21,1.85-26.51c8.39-1.94,21.7-13.88,25.49-6.09,10.79,22.18,36.16,13.59,56.81-2.73,11.66,1.42,23.37,2.9,35,4.38" style="fill:#213b80"/><path d="M246.54,383.31Q222.95,398,198.86,411.9l.86,1.48.08-1.71q-45.65-2.21-91.28-4.44l-.08,1.7.74-1.53q-22.26-10.81-44.53-21.57l-1.49,3.07q22.28,10.78,44.53,21.56l.31.16h.35q45.65,2.22,91.28,4.45l.5,0,.44-.25c16.06-9.32,32-18.82,47.77-28.64Z" style="fill:#213b80"/></g><g id="efbfb730-5c86-4de7-a5ff-3bb35815b21b" data-name="Group 7186"><path id="bfd51f5a-8e4e-41ff-8208-bd3ee514fb28" data-name="Path 9607" d="M236.65,416.45l1.45,21.18-14.75,89,1.74,11.49-1.74,15.21-4.25,4.81-5.85,2.22-6.31,3h-2.66l-5.64-3,3.63-5.93,1.44-9.44-2.32,5L197,551.49l5.52-17.44,6.23-14.81V445.71l-2.35-25.21Z" style="fill:#fdcbaa"/></g><line x1="312" y1="489.5" x2="726" y2="489.5" style="fill:none;stroke:#5260ff;stroke-miterlimit:10;stroke-width:4px;stroke-dasharray:15"/></svg>